<svg width="121" height="127" viewBox="0 0 121 127" fill="none" xmlns="http://www.w3.org/2000/svg">
<g clip-path="url(#clip0_686_122)">
<path d="M112.002 85.1783C113.732 85.7455 114.695 86.439 115.095 87.2697C115.465 88.0353 115.423 89.0594 114.795 90.5041L114.661 90.7987C110.775 98.8468 105.268 105.819 98.3972 111.64L98.3965 111.641C98.3407 111.648 98.2501 111.65 98.105 111.645C97.9627 111.64 97.7943 111.629 97.5859 111.616C97.4735 111.609 97.3517 111.604 97.221 111.598C96.1648 108.44 97.2307 106.001 98.9598 103.472C99.4077 102.817 99.8959 102.162 100.401 101.488C100.905 100.816 101.426 100.124 101.928 99.4092C102.932 97.9782 103.88 96.4285 104.511 94.6662L104.817 93.8129L103.931 94.0099C102.219 94.391 100.958 94.7579 99.7775 94.8838C75.5247 96.5073 54.7795 88.5002 36.6852 73.797L36.6779 73.7917C33.976 71.676 31.6587 68.7155 29.7596 65.6584C23.0643 54.7307 19.5988 42.7235 20.0465 29.7299L20.102 28.4687C20.3584 24.1631 21.8903 19.8099 23.2722 15.5244L23.2754 15.5162L23.2773 15.5067L23.3689 15.2249C23.6083 14.5715 24.0277 13.9438 24.532 13.3056C24.8191 12.9423 25.124 12.5872 25.4322 12.2242C25.6613 11.9542 25.8916 11.68 26.1092 11.4031C26.5415 11.5287 26.9737 11.6547 27.406 11.7803C27.3273 12.5635 27.2962 13.3469 27.2548 14.0977C27.2052 14.9955 27.1354 15.863 26.9444 16.7179C23.0743 32.5917 26.9231 46.8964 33.9406 60.2169L33.9414 60.2163C36.3861 64.8612 40.3438 69.1036 44.6423 72.22C56.6963 81.2207 70.3998 86.9919 85.6166 89.0026C90.0409 89.5961 94.6974 89.3224 99.3954 88.3576L100.776 88.0741L99.5263 87.4244C98.4528 86.8662 97.2823 86.2205 96.0943 85.6829L95.5835 85.4593C91.9703 83.8726 88.3138 82.3747 84.8126 80.6034L84.1157 80.2461C82.6425 79.4688 81.3492 78.0333 80.1762 76.5313L80.1658 76.5183L80.1548 76.5059C80.1169 76.4633 80.0616 76.3609 80.0229 76.1761C79.9858 75.9988 79.9717 75.7827 79.9851 75.5542C80.0134 75.0716 80.152 74.6625 80.2944 74.488C80.4325 74.3188 80.8005 74.1125 81.2554 74C81.47 73.947 81.6721 73.9233 81.8336 73.928C81.9137 73.9303 81.9755 73.9402 82.0197 73.9517C82.055 73.961 82.0714 73.9693 82.0752 73.9715L82.0965 73.9866L82.1192 74.0003C91.342 79.4443 101.953 81.909 112.002 85.1769L112.002 85.1783Z" stroke="#695CEF"/>
</g>
<defs>
<clipPath id="clip0_686_122">
<rect width="124" height="51" fill="white" transform="translate(38.0625) rotate(48.2734)"/>
</clipPath>
</defs>
</svg>
