<svg width="147" height="121" viewBox="0 0 147 121" fill="none" xmlns="http://www.w3.org/2000/svg">
<g clip-path="url(#clip0_581_282)">
<path d="M133.829 106.791C133.566 107.566 133.166 108.033 132.698 108.257C132.229 108.482 131.595 108.509 130.769 108.212C123.982 105.411 117.152 102.708 110.355 99.761C109.665 99.4378 108.997 98.9236 108.258 98.2999C107.693 97.8238 107.085 97.2819 106.42 96.7551C108.098 95.8496 109.523 95.8958 110.861 96.2592C111.631 96.4682 112.37 96.7808 113.134 97.101C113.886 97.416 114.666 97.7401 115.464 97.9299L115.473 97.9313L116.058 98.0665C118.98 98.7725 121.793 99.9303 125.479 101.082L126.443 101.384L126.098 100.434C122.323 90.0848 117.101 81.5253 110.6 73.7947C86.8992 45.3803 55.8331 31.8982 19.5024 29.9684L19.4989 29.9683C17.1171 29.8577 14.7409 29.8854 12.3809 29.9311C10.031 29.9766 7.70151 30.0404 5.37503 30.0085C4.49327 29.8241 3.64572 29.6692 2.51886 29.5195C5.74494 28.2521 10.1038 27.5582 15.2098 27.3948C21.2105 27.2027 28.19 27.7444 35.4661 28.903C50.0239 31.2213 65.7094 36.0037 77.0561 42.2828L77.0569 42.2834L78.2019 42.9179C89.9339 49.4646 98.5587 55.6947 106.34 64.0408C114.379 72.662 121.537 83.5617 130.285 99.4478L130.763 100.314L131.178 99.4151C131.648 98.3962 132.031 97.4477 132.389 96.5883C132.749 95.7233 133.084 94.9507 133.463 94.2518L133.473 94.2321C134.302 92.5375 135.169 90.8148 136.305 89.438L136.315 89.4267L136.323 89.4149C136.325 89.4128 136.337 89.3997 136.366 89.3796C136.402 89.3554 136.454 89.3273 136.522 89.2987C136.66 89.2411 136.84 89.1926 137.037 89.1626C137.46 89.0984 137.826 89.1378 137.985 89.2176C138.037 89.2435 138.119 89.3107 138.215 89.4439C138.308 89.5724 138.396 89.7375 138.466 89.9185C138.536 90.0988 138.585 90.2828 138.609 90.4449C138.634 90.6126 138.628 90.7243 138.615 90.778C137.13 96.1469 135.471 101.383 133.829 106.791Z" stroke="#695CEF"/>
</g>
<defs>
<clipPath id="clip0_581_282">
<rect width="153.592" height="36.8415" fill="white" transform="translate(22.4082 0.0585938) rotate(36.1504)"/>
</clipPath>
</defs>
</svg>
