<svg width="139" height="157" viewBox="0 0 139 157" fill="none" xmlns="http://www.w3.org/2000/svg">
<g clip-path="url(#clip0_808_14)">
<path d="M10.2246 41.4777C8.25486 40.4321 7.05523 39.374 6.49482 38.2239C5.94742 37.1005 5.96633 35.7958 6.65337 34.1373C10.2682 25.6845 15.7553 18.8403 22.8353 13.6256C22.8997 13.6319 22.9979 13.6484 23.1442 13.683C23.3035 13.7207 23.4922 13.7713 23.7232 13.8322C23.8816 13.874 24.0568 13.9179 24.247 13.9652C25.014 15.9827 25.145 17.6308 24.8968 19.071C24.6378 20.5736 23.9603 21.8926 23.0837 23.2071C22.6449 23.8651 22.161 24.5157 21.6582 25.1863C21.1578 25.8535 20.6381 26.5418 20.1412 27.2624C19.1452 28.7064 18.2233 30.3027 17.6703 32.2142L17.4785 32.8764L18.1676 32.853C20.0277 32.7902 21.3877 32.6435 22.6807 32.7575C49.3988 36.2469 73.0658 50.1517 94.3608 71.2664L94.3658 71.2712C97.5622 74.3538 100.391 78.3299 102.756 82.3114L102.756 82.3121C111.103 96.5177 115.952 111.256 116.544 126.257L116.589 127.71C116.666 132.658 115.333 137.373 114.164 142.035L114.162 142.045L114.16 142.055L114.083 142.359C113.876 143.056 113.471 143.682 112.972 144.303C112.687 144.658 112.382 145 112.07 145.354C111.854 145.599 111.636 145.85 111.43 146.107C111.17 145.978 110.91 145.85 110.65 145.722C110.365 145.581 110.08 145.44 109.795 145.3C109.825 144.362 109.787 143.409 109.769 142.495C109.749 141.466 109.753 140.474 109.892 139.524L109.892 139.523C112.846 121.978 107.399 104.567 98.5417 87.5977C95.4704 81.709 90.7662 75.9421 85.7751 71.3963C71.7171 58.3097 56.102 48.5935 39.1192 42.8963L39.119 42.8976C34.1891 41.2338 29.0668 40.518 23.9469 40.5967L22.4318 40.6196L23.6629 41.5032C25.079 42.5191 26.625 43.6813 28.1683 44.643C32.5693 47.458 37.0341 50.1769 41.3119 53.2456C43.0522 54.5067 44.6306 56.5001 46.0564 58.506L46.0715 58.5252C46.2566 58.7601 46.3916 59.2506 46.4008 59.8138C46.4052 60.0822 46.3803 60.3386 46.3316 60.551C46.2807 60.7729 46.2135 60.9043 46.1654 60.9617C46.1238 61.0114 46.0237 61.0863 45.8396 61.1526C45.6625 61.2165 45.4441 61.2595 45.2148 61.2733C44.9856 61.2871 44.7622 61.2705 44.5756 61.2275C44.3827 61.1831 44.2664 61.1189 44.2108 61.0675L44.1958 61.0532L44.1798 61.0409C33.547 52.7015 21.6359 47.508 10.2245 41.479L10.2246 41.4777Z" stroke="#695CEF"/>
</g>
<defs>
<clipPath id="clip0_808_14">
<rect width="160" height="50" fill="white" transform="translate(99.0469 156.609) rotate(-128.246)"/>
</clipPath>
</defs>
</svg>
