<svg width="78" height="88" viewBox="0 0 78 88" fill="none" xmlns="http://www.w3.org/2000/svg">
<g clip-path="url(#clip0_595_206)">
<path d="M18.2275 0.828125C17.9616 0.77482 17.5542 0.771419 17.1689 0.845703C16.7731 0.92208 16.529 1.05571 16.4346 1.16992C16.2051 1.51929 15.9959 2.0273 15.9072 2.50195C15.8627 2.74032 15.8522 2.94864 15.873 3.11035C15.8943 3.27438 15.9416 3.35072 15.9727 3.38184L15.9932 3.40234L16.0117 3.42578C17.4747 5.29406 19.0742 6.90185 20.8213 8.52051C28.1205 14.8949 35.7164 21.2911 43.0273 27.8115C44.1426 28.7907 45.1452 29.938 46.2158 31.251C47.2964 32.5761 48.4284 34.0473 49.8506 35.7461L50.5381 36.5674H49.4668C47.648 36.5674 46.208 36.6347 44.9277 36.6689C43.6541 36.703 42.5395 36.7042 41.417 36.5635L41.3955 36.5596C36.585 35.7438 31.7747 34.8605 26.9688 33.9775C22.1617 33.0944 17.3582 32.2119 12.5557 31.3975L12.5469 31.3965C10.3313 30.9797 8.28304 30.467 6.2334 30.8525L6.21191 30.8564C5.31063 30.9856 4.27479 31.2772 3.33984 31.7139C2.39835 32.1536 1.60227 32.7203 1.12988 33.3721L1.125 33.3779C0.424932 34.3147 0.363965 35.293 0.691406 36.2637C1.02708 37.2588 1.7748 38.2443 2.68945 39.0967C4.45288 40.7299 6.18373 42.3316 8.1748 43.6641C14.1994 47.6035 20.1905 51.5094 26.1816 55.415C32.1717 59.32 38.1623 63.2249 44.1865 67.1641C45.1403 67.7793 46.0938 68.4287 47.1924 69.1748C48.2921 69.9217 49.5415 70.7688 51.0947 71.7852L52.457 72.6758L50.8291 72.7031C46.6896 72.7723 43.045 71.6275 39.5254 70.8408C36.2251 70.1032 32.9759 69.6588 29.3096 70.668C30.1101 71.4439 30.8023 72.1524 31.3828 72.709C32.1368 73.4319 32.7753 73.971 33.46 74.3457C45.3227 80.1592 58.0013 84.0847 70.9619 86.7939L70.9697 86.7949C73.5655 87.3809 75.4461 86.8043 76.4873 85.583C77.5353 84.3536 77.867 82.3166 77.0195 79.6973C76.2161 77.279 75.1558 74.8956 73.583 72.9229L73.9736 72.6113L73.582 72.9229L73.5752 72.9131C69.2479 67.2144 64.7839 61.6502 60.1836 56.084L60.1846 56.083C59.844 55.6877 59.2441 55.2893 58.6006 55.0215C58.2818 54.8889 57.9677 54.7956 57.6895 54.75C57.4167 54.7053 57.2086 54.7123 57.0693 54.748C56.6511 54.9212 56.3761 55.1438 56.1982 55.3838C56.0161 55.6296 55.916 55.9195 55.8887 56.248C55.8397 56.8373 56.0279 57.5333 56.375 58.2129L56.5342 58.5029L56.5352 58.5049C58.5126 61.9439 60.747 65.3828 62.873 68.7129C63.0895 68.8753 63.1006 69.1421 63.1006 69.2148V70.9287L62.4092 69.8438L62.2637 69.9893L61.9238 69.7715C54.4101 64.9492 46.8626 60.1264 39.3145 55.3037C31.7663 50.481 24.2171 45.658 16.7021 40.835L16.375 40.625L16.498 40.2568C16.5736 40.0294 16.6842 39.7709 16.7832 39.5391C16.8871 39.2957 16.9793 39.0784 17.0391 38.8984L17.1748 38.4893L17.5996 38.5635C23.0487 39.5143 28.5991 40.464 34.0703 41.3232L36.4072 41.6855C40.0539 42.2276 43.6733 42.6302 47.2822 42.4961H47.2832C50.9727 42.3638 53.3346 41.0171 54.3545 39.0625C55.3762 37.1039 55.1508 34.3451 53.2402 31.1689C51.8916 29.0039 50.3 26.7482 48.4648 25.1699C39.124 17.2918 29.6597 9.69617 20.3086 1.94531L20.3096 1.94434C19.6411 1.40846 18.9172 0.943723 18.2441 0.831055L18.2354 0.830078L18.2275 0.828125Z" stroke="#2C2BAB"/>
</g>
<defs>
<clipPath id="clip0_595_206">
<rect width="78" height="87.2363" fill="white" transform="matrix(-1 0 0 1 78 0.289062)"/>
</clipPath>
</defs>
</svg>
