<svg width="152" height="120" viewBox="0 0 152 120" fill="none" xmlns="http://www.w3.org/2000/svg">
<g clip-path="url(#clip0_581_274)">
<path d="M140.445 95.4939C140.293 95.6304 140.142 95.7705 139.997 95.9089C139.763 96.1325 139.54 96.3478 139.311 96.5446C138.847 96.9442 138.428 97.2057 138.006 97.2681L137.993 97.2704L137.979 97.2734C134.261 98.0281 130.582 98.7742 126.793 99.01L126.79 99.0098C89.2091 101.493 52.8243 79.8238 35.9748 44.6507L35.5813 43.8182C32.4052 36.9877 30.4644 29.6391 28.0113 22.4697L28.0107 22.467C27.4987 20.9953 27.2626 19.5703 26.9019 17.9887L26.8847 17.9097L26.8419 17.8402C26.6813 17.5759 26.419 17.4385 26.1862 17.3676C25.9485 17.2953 25.6831 17.2735 25.4255 17.2802L25.0797 17.2888L24.9664 17.6156C23.4177 22.0702 21.8012 26.4693 20.1035 31.3535C18.1971 29.5215 17.8346 27.2736 18.3119 25.3196C19.9926 18.4395 21.8413 11.5357 24.2792 4.86362L24.2794 4.86144C24.9257 3.06888 26.0307 2.21767 27.1783 2.08748C28.3465 1.95507 29.7349 2.54823 30.969 4.02115L30.9729 4.02592C35.3888 9.15372 39.4947 14.5231 43.7953 19.8826L43.7992 19.8874C43.9447 20.0645 44.0675 20.1989 44.1703 20.3447C44.2183 20.4126 44.2458 20.4626 44.2599 20.4956C44.2611 20.4983 44.2628 20.5005 44.2636 20.5026L44.2623 20.5121L44.2649 20.5519C44.3165 21.4241 44.1785 22.2436 44.0644 23.2016C43.6916 23.1846 43.3134 23.1951 43.0257 23.1874C42.5263 23.1739 42.2625 23.1081 42.1305 22.991L42.131 22.9902L42.1216 22.9831C40.119 21.2849 38.3724 19.4598 36.5049 17.689L36.498 17.6835C35.4902 16.761 34.545 15.6857 32.3862 15.1141L31.6249 14.912L31.766 15.6873C31.9471 16.6787 32.1126 17.6975 32.2784 18.7221C32.4439 19.7446 32.6106 20.7731 32.7938 21.7761L32.795 21.7872L32.7979 21.7971C42.1681 62.8907 76.692 92.0033 118.804 94.688L118.807 94.6887L119.822 94.7388C124.895 94.9589 129.963 94.6859 135.006 94.7144L135.006 94.7153C135.948 94.7249 136.876 94.7607 137.811 94.7968C138.63 94.8284 139.454 94.8584 140.292 94.8724C140.312 94.9486 140.331 95.0314 140.352 95.1241C140.378 95.2346 140.407 95.3609 140.445 95.4939Z" stroke="#695CEF"/>
</g>
<defs>
<clipPath id="clip0_581_274">
<rect width="147.81" height="48" fill="white" transform="translate(26.4521 0.197266) rotate(32.1743)"/>
</clipPath>
</defs>
</svg>
