<svg width="79" height="88" viewBox="0 0 79 88" fill="none" xmlns="http://www.w3.org/2000/svg">
<g clip-path="url(#clip0_595_208)">
<path d="M60.5361 1.00586C60.8076 0.952346 61.2225 0.949052 61.6143 1.02344C62.0189 1.1003 62.268 1.23563 62.3633 1.35059C62.595 1.69839 62.8061 2.20283 62.8955 2.67383C62.9405 2.91063 62.9506 3.11657 62.9297 3.27637C62.9084 3.43833 62.8615 3.51387 62.8301 3.54492L62.8086 3.56543L62.79 3.58887C61.3083 5.45076 59.6886 7.05281 57.9189 8.66602C50.5261 15.0187 42.8334 21.3935 35.4287 27.8916C34.2994 28.8672 33.2836 30.0099 32.1992 31.3184C31.1048 32.6389 29.9579 34.105 28.5176 35.7979L27.8164 36.6221H28.8984C30.741 36.6221 32.2007 36.6895 33.4971 36.7236C34.7869 36.7576 35.9149 36.7583 37.0508 36.6182L37.0615 36.6172L37.0713 36.6152C41.9433 35.8023 46.8151 34.9219 51.6826 34.042C56.5512 33.1619 61.4161 32.2824 66.2803 31.4707L66.2891 31.4688C68.5317 31.0536 70.6101 30.5428 72.6895 30.9277L72.7002 30.9297L72.7109 30.9307C73.6251 31.0596 74.6751 31.3514 75.623 31.7871C76.5778 32.2259 77.3848 32.7908 77.8633 33.4404L77.8672 33.4463C78.5756 34.3789 78.6374 35.3507 78.3066 36.3154C77.9671 37.3058 77.2102 38.2877 76.2832 39.1377C74.4961 40.7663 72.7414 42.3637 70.7227 43.6924C64.6222 47.6174 58.5558 51.509 52.4893 55.4004C46.4222 59.2921 40.3546 63.1836 34.2529 67.1094C33.287 67.7224 32.3216 68.3697 31.209 69.1133C30.0953 69.8576 28.8299 70.702 27.2568 71.7148L25.8691 72.6074L27.5195 72.6348C31.71 72.7037 35.3987 71.5626 38.9648 70.7783C42.3075 70.0432 45.6 69.6018 49.3154 70.6074C48.5075 71.3781 47.8091 72.0815 47.2227 72.6348C46.4644 73.3502 45.8207 73.8851 45.1318 74.2588C33.1116 80.057 20.2641 83.9716 7.13086 86.6729L7.12402 86.6748C4.4906 87.2598 2.58049 86.6837 1.52441 85.4648C0.464023 84.2409 0.128507 82.2138 0.986328 79.6055C1.79981 77.1961 2.87403 74.8221 4.4668 72.8564L4.47363 72.8467C8.85645 67.1674 13.3767 61.6215 18.0361 56.0742C18.3813 55.6798 18.9902 55.2821 19.6436 55.0146C19.9669 54.8823 20.2854 54.7888 20.5684 54.7432C20.8443 54.6986 21.0566 54.7054 21.2002 54.7412C21.6275 54.9147 21.9083 55.1371 22.0889 55.377C22.2731 55.6216 22.3739 55.9096 22.4014 56.2354C22.4578 56.9036 22.2016 57.7116 21.749 58.4775L21.748 58.4795C19.7453 61.9067 17.4815 65.3336 15.3281 68.6523C15.11 68.8131 15.0967 69.0798 15.0967 69.1562V70.8467L15.7891 69.7783L15.9395 69.9268L16.2754 69.7148C23.8856 64.9089 31.5307 60.1031 39.1758 55.2969C46.8207 50.4907 54.4659 45.6835 62.0771 40.877L62.4092 40.667L62.2842 40.2949C62.2075 40.0679 62.0944 39.8101 61.9941 39.5791C61.8888 39.3363 61.7958 39.1195 61.7354 38.9404L61.5986 38.5352L61.1768 38.6084C54.8702 39.6912 48.4299 40.7729 42.1279 41.7197C38.4343 42.26 34.7677 42.661 31.1113 42.5273H31.1104C27.3684 42.3954 24.9741 41.051 23.9414 39.1035C22.9084 37.1551 23.1356 34.41 25.0703 31.2451C26.4361 29.0876 28.0482 26.8398 29.9072 25.2666L29.9062 25.2656C39.3648 17.4162 48.9481 9.84846 58.417 2.12598L58.418 2.12695C59.0964 1.59115 59.8323 1.12202 60.5195 1.00879L60.5283 1.00781L60.5361 1.00586Z" stroke="#2C2BAB"/>
</g>
<defs>
<clipPath id="clip0_595_208">
<rect width="79" height="86.9376" fill="white" transform="translate(0 0.466797)"/>
</clipPath>
</defs>
</svg>
