<svg width="121" height="127" viewBox="0 0 121 127" fill="none" xmlns="http://www.w3.org/2000/svg">
<g clip-path="url(#clip0_686_120)">
<path d="M8.5276 41.0512C6.8018 40.4689 5.84567 39.7669 5.45217 38.9328C5.08967 38.1641 5.13997 37.1403 5.78094 35.7012L5.91725 35.4078C9.87323 27.3939 15.4412 20.4704 22.363 14.7096L22.3637 14.7089C22.4195 14.7022 22.5102 14.7003 22.6552 14.7067C22.7974 14.713 22.9657 14.7256 23.1741 14.7403C23.2864 14.7482 23.4081 14.7544 23.5387 14.7622C24.5673 17.9293 23.4801 20.359 21.7289 22.8725C21.2754 23.5235 20.7814 24.1743 20.2701 24.8441C19.7608 25.5114 19.2339 26.1982 18.7256 26.9089C17.7085 28.3312 16.7475 29.8725 16.1007 31.6292L15.7878 32.4798L16.6751 32.2906C18.3907 31.9244 19.6549 31.5686 20.8362 31.453C45.1022 30.0417 65.7766 38.23 83.7416 53.0909L83.7488 53.0962C86.4321 55.2356 88.7234 58.2162 90.5957 61.2898C97.1952 72.2756 100.556 84.3127 99.9941 97.3019L99.9276 98.5625C99.6335 102.866 98.0637 107.205 96.6443 111.479L96.641 111.487L96.639 111.496L96.545 111.777C96.2998 112.429 95.875 113.053 95.3651 113.686C95.0748 114.047 94.7669 114.399 94.4555 114.76C94.224 115.028 93.9914 115.3 93.7713 115.575C93.3401 115.446 92.9091 115.316 92.4779 115.186C92.5635 114.404 92.6014 113.621 92.6494 112.87C92.7068 111.973 92.7842 111.106 92.9826 110.253C96.9915 94.4137 93.268 80.0758 86.3672 66.6945L86.3665 66.6951C83.9625 62.029 80.042 57.7521 75.7709 54.5983C63.7962 45.4924 50.1437 39.6016 34.9451 37.4578C30.5261 36.8256 25.8674 37.0587 21.1611 37.9823L19.7785 38.2537L21.0221 38.9143C22.0907 39.4819 23.2554 40.1378 24.4388 40.6858L24.9476 40.9138C28.5467 42.5321 32.19 44.062 35.6756 45.8637L36.3692 46.2271C37.8356 47.0173 39.1163 48.4641 40.2762 49.9762L40.2864 49.9894L40.2973 50.0018C40.3349 50.0448 40.3893 50.1476 40.4264 50.3328C40.4619 50.5105 40.4741 50.7266 40.4587 50.955C40.4262 51.4374 40.284 51.8452 40.1401 52.0184C40.0005 52.1864 39.6308 52.3895 39.1749 52.498C38.9598 52.5492 38.7575 52.5711 38.5961 52.565C38.5159 52.562 38.4542 52.5515 38.4102 52.5396C38.3749 52.5301 38.3586 52.5216 38.3548 52.5193L38.3336 52.5041L38.311 52.4902C29.1363 46.9657 18.5469 44.4082 8.52751 41.0526L8.5276 41.0512Z" stroke="#695CEF"/>
</g>
<defs>
<clipPath id="clip0_686_120">
<rect width="124" height="51" fill="white" transform="translate(81.7188 126.873) rotate(-131.225)"/>
</clipPath>
</defs>
</svg>
