<svg width="135" height="78" viewBox="0 0 135 78" fill="none" xmlns="http://www.w3.org/2000/svg">
<g clip-path="url(#clip0_584_325)">
<path d="M19.7989 42.8233C20.9081 45.9203 20.4487 48.4859 19.7412 51.0272C18.9748 53.7798 17.8651 56.6149 18.397 59.9111L18.5294 60.7304L19.1916 60.2307C19.6579 59.8788 20.1077 59.5759 20.546 59.2718C20.9771 58.9727 21.3981 58.6725 21.7775 58.3423C49.481 34.807 81.822 23.1491 117.78 20.7777L117.79 20.7768C121.485 20.4563 125.286 20.7556 129.105 20.9149L129.111 20.9154C130.016 20.941 130.905 21.1894 131.561 21.7182C132.2 22.2332 132.668 23.0532 132.685 24.3407L132.685 24.3512L132.686 24.3613C132.759 25.6608 132.406 26.3252 131.912 26.6752C131.379 27.0524 130.541 27.1725 129.422 27.0518C104.167 24.1001 81.5924 31.3455 59.5988 40.5404L57.4717 41.4362C45.6038 46.3738 34.5538 52.6702 24.3224 60.6633L24.3168 60.6677C23.0417 61.6938 21.8313 62.8632 20.4546 64.2592L19.2328 65.4984L20.9268 65.0967C30.123 62.914 38.6575 60.827 47.252 58.8845C47.401 58.8667 47.6328 58.9306 48.1628 59.192C48.4884 59.3526 48.8994 59.5692 49.4065 59.8121C46.416 61.6161 44.0995 63.2085 41.642 64.4075L41.1046 64.6624C33.3857 68.0996 25.6676 71.2009 17.8213 74.3536C17.5734 74.4532 17.3307 74.5614 17.0982 74.6652C16.8626 74.7705 16.637 74.8716 16.4095 74.963C15.9561 75.1452 15.5177 75.2802 15.0535 75.3205L15.0375 75.3227L15.0207 75.3253L14.7297 75.3633C13.2955 75.52 12.2168 75.1539 11.511 74.4117C10.7491 73.6104 10.3249 72.2699 10.4793 70.3565C10.6684 68.4613 11.0314 66.665 11.5668 64.9667C13.6283 58.4276 15.8666 51.9841 18.1081 45.5328L18.1105 45.5256L18.1132 45.5192C18.2709 45.019 18.5476 44.5658 18.9376 44.0166C19.1843 43.6692 19.4796 43.2756 19.7989 42.8233Z" stroke="#695CEF"/>
</g>
<defs>
<clipPath id="clip0_584_325">
<rect width="132.632" height="30" fill="white" transform="translate(0.706055 49.4805) rotate(-21.8908)"/>
</clipPath>
</defs>
</svg>
