<svg width="222" height="292" viewBox="0 0 222 292" fill="none" xmlns="http://www.w3.org/2000/svg">
<path d="M353.606 117.911C325.551 80.274 283.693 55.3232 237.241 48.5479C190.79 41.7725 143.549 53.7276 105.912 81.7831C68.2743 109.839 43.3235 151.696 36.5482 198.148C29.7728 244.6 41.7278 291.841 69.7833 329.478" stroke="url(#paint0_linear_739_14)" stroke-width="60"/>
<path d="M316.086 158.55C298.809 135.373 273.032 120.007 244.426 115.835C215.821 111.663 186.729 119.025 163.551 136.302C140.373 153.579 125.008 179.356 120.836 207.962C116.663 236.568 124.025 265.659 141.303 288.837" stroke="url(#paint1_linear_739_14)" stroke-linecap="round" stroke-dasharray="0 1 10 0 1 10"/>
<path d="M237.115 48.6423C190.677 41.8565 143.455 53.7975 105.837 81.8383C68.2198 109.879 43.2879 151.723 36.5264 198.164C29.765 244.606 41.7279 291.841 69.7833 329.478" stroke="#695CEF" stroke-width="60"/>
<g opacity="0.4" filter="url(#filter0_d_739_14)">
<circle cx="246.695" cy="223.694" r="70" transform="rotate(-36.7015 246.695 223.694)" fill="white"/>
</g>
<path d="M258.743 239.02C267.34 232.611 269.15 220.203 262.742 211.606C256.322 202.993 243.925 201.199 235.312 207.619C226.715 214.027 224.909 226.409 231.329 235.021C237.737 243.618 250.146 245.428 258.743 239.02ZM257.226 236.984C249.646 242.634 239.003 241.067 233.365 233.504C227.715 225.925 229.254 215.277 236.818 209.639C244.397 203.989 255.056 205.544 260.722 213.111C266.36 220.675 264.805 231.334 257.226 236.984ZM240.985 215.229C241.768 214.646 241.947 213.513 241.363 212.73C240.768 211.932 239.632 211.78 238.849 212.364C238.066 212.947 237.902 214.068 238.498 214.866C239.081 215.649 240.202 215.813 240.985 215.229ZM246.329 227.104C248.328 227.368 249.68 225.946 249.663 223.864L249.718 210.278C249.706 209.216 248.499 209.068 248.176 210.039L244.005 223.039C243.37 224.998 244.295 226.794 246.329 227.104ZM236.419 223.091C237.202 222.507 237.353 221.371 236.77 220.588C236.186 219.805 235.066 219.641 234.283 220.225C233.5 220.809 233.321 221.941 233.904 222.724C234.488 223.507 235.636 223.674 236.419 223.091ZM238.604 231.839C239.387 231.256 239.539 230.12 238.955 229.337C238.371 228.554 237.251 228.39 236.468 228.974C235.685 229.557 235.506 230.69 236.089 231.473C236.673 232.256 237.821 232.423 238.604 231.839ZM257.599 217.68C258.382 217.097 258.549 215.949 257.966 215.166C257.382 214.383 256.246 214.231 255.463 214.815C254.68 215.398 254.516 216.519 255.1 217.302C255.684 218.085 256.816 218.264 257.599 217.68ZM246.38 236.421C247.178 235.826 247.342 234.705 246.758 233.922C246.163 233.123 245.042 232.96 244.243 233.555C243.46 234.139 243.281 235.271 243.877 236.07C244.46 236.853 245.597 237.005 246.38 236.421ZM259.768 226.441C260.551 225.857 260.715 224.736 260.131 223.953C259.536 223.155 258.415 222.991 257.632 223.575C256.834 224.17 256.67 225.291 257.265 226.09C257.849 226.873 258.97 227.036 259.768 226.441Z" fill="#2C2BAB"/>
<defs>
<filter id="filter0_d_739_14" x="151.69" y="133.689" width="190.009" height="190.01" filterUnits="userSpaceOnUse" color-interpolation-filters="sRGB">
<feFlood flood-opacity="0" result="BackgroundImageFix"/>
<feColorMatrix in="SourceAlpha" type="matrix" values="0 0 0 0 0 0 0 0 0 0 0 0 0 0 0 0 0 0 127 0" result="hardAlpha"/>
<feOffset dy="5"/>
<feGaussianBlur stdDeviation="12.5"/>
<feColorMatrix type="matrix" values="0 0 0 0 0 0 0 0 0 0 0 0 0 0 0 0 0 0 0.1 0"/>
<feBlend mode="normal" in2="BackgroundImageFix" result="effect1_dropShadow_739_14"/>
<feBlend mode="normal" in="SourceGraphic" in2="effect1_dropShadow_739_14" result="shape"/>
</filter>
<linearGradient id="paint0_linear_739_14" x1="105.912" y1="81.7831" x2="211.695" y2="223.695" gradientUnits="userSpaceOnUse">
<stop stop-color="#FFD572"/>
<stop offset="1" stop-color="#FEBD38"/>
</linearGradient>
<linearGradient id="paint1_linear_739_14" x1="163.551" y1="136.302" x2="228.694" y2="223.694" gradientUnits="userSpaceOnUse">
<stop stop-color="#2C2BAB"/>
<stop offset="1" stop-color="#FE464B"/>
</linearGradient>
</defs>
</svg>
