<svg width="1015" height="629" viewBox="0 0 1015 629" fill="none" xmlns="http://www.w3.org/2000/svg">
<path d="M36.9899 1239.35C-0.725487 975.373 -26.8929 751.521 61.0859 675.136C149.065 598.75 270.915 699.818 337.712 656.492C404.51 613.167 398.972 533.953 384.884 465.116C370.796 396.279 343.88 260.548 424.83 208.043C505.779 155.538 619.753 244.463 671.321 279.33C722.888 314.197 842.129 379.004 917.984 329.804C993.839 280.603 980.067 209.775 1056.56 170.23C1133.04 130.686 1214.41 200.333 1289.13 151.867C1363.85 103.401 1307.42 46.1571 1377.05 0.995594" stroke="url(#paint0_linear_735_8)" stroke-width="2" stroke-linecap="round" stroke-linejoin="round"/>
<defs>
<linearGradient id="paint0_linear_735_8" x1="36.9899" y1="1239.35" x2="1545.59" y2="260.849" gradientUnits="userSpaceOnUse">
<stop stop-color="#FF59F8"/>
<stop offset="0.197917" stop-color="#AE72FF"/>
<stop offset="0.40625" stop-color="#90E9ED"/>
<stop offset="0.619792" stop-color="#5CD167"/>
<stop offset="0.825321" stop-color="#FFEE00"/>
</linearGradient>
</defs>
</svg>
