<svg width="113" height="113" viewBox="0 0 113 113" fill="none" xmlns="http://www.w3.org/2000/svg">
<rect width="113" height="113" rx="56.5" fill="#343090"/>
<path d="M64.1875 58.2276C65.2382 56.7293 65.8576 54.9714 65.9782 53.1454C66.0989 51.3194 65.7162 49.4953 64.8717 47.8718C64.0273 46.2482 62.7536 44.8875 61.1892 43.9379C59.6249 42.9883 57.83 42.4861 56 42.4861C54.17 42.4861 52.3751 42.9883 50.8108 43.9379C49.2465 44.8875 47.9727 46.2482 47.1283 47.8718C46.2838 49.4953 45.9011 51.3194 46.0218 53.1454C46.1424 54.9714 46.7618 56.7293 47.8125 58.2276C46.7418 58.7331 45.8042 59.4823 45.075 60.4151C44.3752 61.308 43.89 62.3499 43.657 63.4601C43.424 64.5704 43.4494 65.7194 43.7313 66.8183L47.5375 81.8183C47.9551 83.4485 48.9049 84.8926 50.2363 85.9218C51.5678 86.951 53.2047 87.5062 54.8875 87.4995H57.1125C58.7941 87.5067 60.43 86.9528 61.7613 85.9255C63.0926 84.8982 64.0432 83.4561 64.4625 81.8276L68.2688 66.8276C68.5506 65.7287 68.576 64.5798 68.343 63.4695C68.11 62.3592 67.6248 61.3174 66.925 60.4245C66.1968 59.4882 65.2592 58.7358 64.1875 58.2276ZM56 47.4995C56.9889 47.4995 57.9556 47.7928 58.7779 48.3422C59.6001 48.8916 60.241 49.6725 60.6194 50.5861C60.9978 51.4997 61.0969 52.5051 60.9039 53.475C60.711 54.4449 60.2348 55.3358 59.5355 56.035C58.8363 56.7343 57.9454 57.2105 56.9755 57.4034C56.0056 57.5964 55.0002 57.4973 54.0866 57.1189C53.173 56.7405 52.3921 56.0996 51.8427 55.2774C51.2932 54.4551 51 53.4884 51 52.4995C51 51.1734 51.5268 49.9017 52.4645 48.964C53.4022 48.0263 54.6739 47.4995 56 47.4995ZM63.4219 65.5964L59.6156 80.5964C59.4703 81.1466 59.1454 81.6326 58.6925 81.9774C58.2397 82.3221 57.6847 82.5059 57.1156 82.4995H54.8906C54.3215 82.5059 53.7666 82.3221 53.3137 81.9774C52.8609 81.6326 52.536 81.1466 52.3906 80.5964L48.5844 65.5964C48.4905 65.2354 48.4817 64.8576 48.5587 64.4926C48.6357 64.1276 48.7964 63.7855 49.0281 63.4933C49.2717 63.181 49.5838 62.9289 49.9404 62.7566C50.2969 62.5843 50.6884 62.4963 51.0844 62.4995H60.9281C61.3241 62.4963 61.7156 62.5843 62.0721 62.7566C62.4287 62.9289 62.7408 63.181 62.9844 63.4933C63.215 63.7861 63.3746 64.1284 63.4505 64.4934C63.5264 64.8583 63.5166 65.2359 63.4219 65.5964ZM38.5 54.9995C38.499 56.4751 38.6838 57.945 39.05 59.3745C39.1378 59.6942 39.1611 60.0281 39.1186 60.3569C39.0761 60.6857 38.9687 61.0028 38.8025 61.2896C38.6363 61.5765 38.4148 61.8275 38.1507 62.0279C37.8866 62.2283 37.5853 62.3742 37.2643 62.4571C36.9433 62.54 36.6091 62.5582 36.281 62.5107C35.9529 62.4632 35.6375 62.3509 35.3532 62.1804C35.0689 62.0098 34.8214 61.7844 34.625 61.5173C34.4286 61.2502 34.2874 60.9467 34.2094 60.6245C33.3544 57.3005 33.2711 53.825 33.966 50.4639C34.6608 47.1028 36.1154 43.9452 38.2184 41.2328C40.3214 38.5204 43.0171 36.325 46.0991 34.8148C49.1811 33.3045 52.5678 32.5193 56 32.5193C59.4322 32.5193 62.8189 33.3045 65.9009 34.8148C68.9829 36.325 71.6786 38.5204 73.7816 41.2328C75.8846 43.9452 77.3392 47.1028 78.034 50.4639C78.7289 53.825 78.6457 57.3005 77.7906 60.6245C77.6521 61.1608 77.3395 61.636 76.9017 61.9754C76.4639 62.3147 75.9258 62.4991 75.3719 62.4995C75.1611 62.4995 74.9512 62.4733 74.7469 62.4214C74.1051 62.2559 73.5553 61.8423 73.2183 61.2715C72.8814 60.7007 72.7849 60.0195 72.95 59.3776C73.5674 56.9734 73.6663 54.4652 73.2401 52.0198C72.8138 49.5744 71.8722 47.2477 70.4778 45.1941C69.0833 43.1405 67.268 41.407 65.1522 40.1088C63.0365 38.8106 60.6687 37.9774 58.2063 37.6645C55.7438 37.3515 53.2429 37.566 50.8697 38.2937C48.4965 39.0214 46.3052 40.2457 44.4414 41.8852C42.5776 43.5247 41.084 45.542 40.0596 47.8031C39.0352 50.0641 38.5036 52.5172 38.5 54.9995ZM88.5 54.9995C88.5043 60.3624 87.1796 65.6428 84.6444 70.3686C82.1091 75.0945 78.4424 79.1184 73.9719 82.0808C73.4199 82.4342 72.7511 82.5567 72.1096 82.4219C71.4682 82.2871 70.9053 81.9057 70.5423 81.3599C70.1792 80.8141 70.0451 80.1476 70.1687 79.5039C70.2923 78.8602 70.6638 78.2908 71.2031 77.9183C76.1254 74.6521 79.865 69.8878 81.8685 64.3307C83.872 58.7736 84.0328 52.719 82.3271 47.0633C80.6214 41.4077 77.1398 36.4516 72.3979 32.9289C67.656 29.4061 61.9057 27.5039 55.9984 27.5039C50.0912 27.5039 44.3409 29.4061 39.599 32.9289C34.8571 36.4516 31.3755 41.4077 29.6698 47.0633C27.9641 52.719 28.1249 58.7736 30.1284 64.3307C32.1319 69.8878 35.8715 74.6521 40.7938 77.9183C41.2405 78.2156 41.5798 78.6488 41.7613 79.1538C41.9429 79.6589 41.9571 80.2089 41.8018 80.7227C41.6466 81.2364 41.3301 81.6865 40.8993 82.0065C40.4684 82.3265 39.9461 82.4994 39.4094 82.4995C38.9176 82.5003 38.4367 82.3545 38.0281 82.0808C33.3464 78.9736 29.5503 74.7057 27.0102 69.6936C24.4702 64.6815 23.273 59.0965 23.5355 53.4836C23.798 47.8708 25.5112 42.4219 28.508 37.6687C31.5048 32.9156 35.6827 29.0206 40.634 26.364C45.5852 23.7073 51.1407 22.3797 56.7582 22.5108C62.3756 22.6419 67.8631 24.2271 72.6851 27.1118C77.5071 29.9966 81.4987 34.0822 84.2705 38.9699C87.0424 43.8576 88.4996 49.3805 88.5 54.9995Z" fill="#FDFDFD"/>
</svg>
