<svg width="82" height="82" viewBox="0 0 82 82" fill="none" xmlns="http://www.w3.org/2000/svg">
<rect width="82" height="82" rx="41" fill="#343090"/>
<path d="M61.109 20.8918C55.7758 15.5586 48.5426 12.5625 41.0004 12.5625C33.4582 12.5625 26.2249 15.5586 20.8918 20.8918C15.5586 26.2249 12.5625 33.4582 12.5625 41.0004C12.5625 48.5426 15.5586 55.7758 20.8918 61.109C26.2249 66.4421 33.4582 69.4382 41.0004 69.4382C48.5426 69.4382 55.7758 66.4421 61.109 61.109C66.4421 55.7758 69.4382 48.5426 69.4382 41.0004C69.4382 33.4582 66.4421 26.2249 61.109 20.8918ZM58.0164 23.9871C59.1381 25.1136 60.1456 26.3482 61.0242 27.673L51.8148 38.5394L44.1805 17.1511C49.4219 17.8358 54.288 20.24 58.0164 23.9871ZM48.5445 42.3676L43.5789 48.2109L36.0347 46.8437L33.4562 39.6332L38.4219 33.7898L45.966 35.157L48.5445 42.3676ZM23.9843 23.9871C28.1156 19.8333 33.6296 17.343 39.4773 16.9898L44.2652 30.3883L21.9418 26.3222C22.5717 25.5007 23.254 24.7207 23.9843 23.9871ZM18.7562 50.1715C17.4581 47.0015 16.8485 43.5919 16.9678 40.1686C17.087 36.7452 17.9325 33.3863 19.448 30.3144L33.4508 32.8711L18.7562 50.1715ZM23.9843 58.0137C22.8627 56.8872 21.8552 55.6525 20.9765 54.3277L30.1859 43.4613L37.8203 64.8387C32.5803 64.157 27.7143 61.7567 23.9843 58.0137ZM58.0164 58.0137C53.8851 62.1674 48.3712 64.6577 42.5234 65.0109L37.7355 51.6125L60.059 55.6894C59.4287 56.5072 58.7464 57.2836 58.0164 58.0137ZM48.55 49.1297L63.2445 31.8293C64.5426 34.9992 65.1522 38.4088 65.033 41.8321C64.9137 45.2555 64.0683 48.6144 62.5527 51.6863L48.55 49.1297Z" fill="#FDFDFD"/>
</svg>
