<svg width="605" height="522" viewBox="0 0 605 522" fill="none" xmlns="http://www.w3.org/2000/svg">
<path d="M94.9026 395.199C7.14311 343.281 -21.9122 230.05 30.0057 142.291C66.5977 80.4373 146.404 59.9589 208.257 96.5509L293.49 146.974C382.686 199.742 412.217 314.827 359.449 404.023C323.707 464.439 245.755 484.442 185.338 448.7L94.9026 395.199Z" fill="#343090" fill-opacity="0.15"/>
<path d="M203.361 260.378C188.167 145.425 269.038 39.9193 383.992 24.7254C465.012 14.0166 539.373 71.0152 550.081 152.035L558.152 213.098C573.595 329.934 491.4 437.166 374.564 452.609C295.426 463.069 222.792 407.394 212.332 328.256L203.361 260.378Z" fill="#343090" fill-opacity="0.08"/>
</svg>
