<svg width="642" height="499" viewBox="0 0 642 499" fill="none" xmlns="http://www.w3.org/2000/svg">
<g clip-path="url(#clip0_656_238)">
<path d="M555.879 37.7775C555.879 37.7775 527.848 23.0896 525.777 56.3692C523.707 89.6488 518.509 305.911 518.509 305.911" stroke="#263238" stroke-width="2" stroke-linecap="round" stroke-linejoin="round"/>
<path d="M511.226 59.3047C511.226 59.3047 534.088 107.258 523.707 302.949" stroke="#263238" stroke-width="2" stroke-linecap="round" stroke-linejoin="round"/>
<path d="M533.678 44.4632C533.678 44.4632 522.958 50.942 516.865 43.5357C510.771 36.1295 520.991 22.5491 511.975 16.7349C502.959 10.9207 487.394 19.7943 487.394 19.7943C487.394 19.7943 499.391 23.1167 498.994 29.277C498.598 35.4373 492.842 37.7769 492.078 35.0774C491.315 32.3779 485.588 18.8114 475.853 24.4595C473.05 26.0225 470.611 28.1036 468.683 30.5777C466.756 33.0518 465.378 35.8679 464.634 38.8567C464.634 38.8567 487.321 36.5863 488.657 44.6155C489.993 52.6447 479.377 43.2312 470.023 42.6913C460.67 42.1514 452.168 43.4665 452.77 48.8101C453.372 54.1536 451.889 62.9027 451.889 62.9027C451.889 62.9027 459.803 56.2717 470.082 56.8393C480.361 57.4068 479.979 63.581 470.625 63.0688C461.272 62.5566 453.254 70.918 453.254 70.918C453.254 70.918 461.771 84.6507 472.608 91.434C483.444 98.2172 487.291 95.7946 488.598 90.5618C489.905 85.329 486.954 71.9009 493.488 72.2608C500.022 72.6207 482.666 95.5316 491.021 96.8744C499.376 98.2172 506.072 95.9469 508.275 90.7695L510.477 85.592C510.477 85.592 507.54 72.1639 508.833 66.9311C510.125 61.6983 511.637 67.0834 513.12 73.3544C514.603 79.6255 515.528 94.7148 518.392 93.9811C521.255 93.2474 530.374 82.2696 532.518 77.9782C534.661 73.6867 520.492 60.5078 520.653 57.8637C520.815 55.2196 531.754 60.2447 533.457 62.9996C534.691 65.0654 535.809 67.191 536.805 69.3675C536.805 69.3675 543.633 65.3253 543.472 52.9493C543.31 40.5733 533.678 44.4632 533.678 44.4632Z" fill="#6B6BC4"/>
<path opacity="0.3" d="M533.678 44.4632C533.678 44.4632 522.958 50.942 516.865 43.5357C510.771 36.1295 520.991 22.5491 511.975 16.7349C502.959 10.9207 487.394 19.7943 487.394 19.7943C487.394 19.7943 499.391 23.1167 498.994 29.277C498.598 35.4373 492.842 37.7769 492.078 35.0774C491.315 32.3779 485.588 18.8114 475.853 24.4595C473.05 26.0225 470.611 28.1036 468.683 30.5777C466.756 33.0518 465.378 35.8679 464.634 38.8567C464.634 38.8567 487.321 36.5863 488.657 44.6155C489.993 52.6447 479.377 43.2312 470.023 42.6913C460.67 42.1514 452.168 43.4665 452.77 48.8101C453.372 54.1536 451.889 62.9027 451.889 62.9027C451.889 62.9027 459.803 56.2717 470.082 56.8393C480.361 57.4068 479.979 63.581 470.625 63.0688C461.272 62.5566 453.254 70.918 453.254 70.918C453.254 70.918 461.771 84.6507 472.608 91.434C483.444 98.2172 487.291 95.7946 488.598 90.5618C489.905 85.329 486.954 71.9009 493.488 72.2608C500.022 72.6207 482.666 95.5316 491.021 96.8744C499.376 98.2172 506.072 95.9469 508.275 90.7695L510.477 85.592C510.477 85.592 507.54 72.1639 508.833 66.9311C510.125 61.6983 511.637 67.0834 513.12 73.3544C514.603 79.6255 515.528 94.7148 518.392 93.9811C521.255 93.2474 530.374 82.2696 532.518 77.9782C534.661 73.6867 520.492 60.5078 520.653 57.8637C520.815 55.2196 531.754 60.2447 533.457 62.9996C534.691 65.0654 535.809 67.191 536.805 69.3675C536.805 69.3675 543.633 65.3253 543.472 52.9493C543.31 40.5733 533.678 44.4632 533.678 44.4632Z" fill="#263238"/>
<path d="M479.332 73.5098C486.322 65.3699 496.63 54.3367 505.264 49.0762" stroke="#263238" stroke-linecap="round" stroke-linejoin="round"/>
<path d="M471.168 83.3776C471.168 83.3776 472.959 81.0242 475.867 77.4941" stroke="#263238" stroke-linecap="round" stroke-linejoin="round"/>
<path d="M509.816 51.0957C509.816 51.0957 520.213 64.9391 522.136 79.1978" stroke="#263238" stroke-linecap="round" stroke-linejoin="round"/>
<path d="M498.055 59.2921C498.055 59.2921 500.991 57.6862 499.875 75.3089" stroke="#263238" stroke-linecap="round" stroke-linejoin="round"/>
<path d="M505.646 42.9149C505.646 42.9149 511.519 37.9451 508.45 28.0332" stroke="#263238" stroke-linecap="round" stroke-linejoin="round"/>
<path d="M497.614 51.3035L493.385 43.9941" stroke="#263238" stroke-linecap="round" stroke-linejoin="round"/>
<path d="M488.789 58.7652C488.789 58.7652 475.324 49.1717 466.91 48.7148" stroke="#263238" stroke-linecap="round" stroke-linejoin="round"/>
<path d="M571.884 18.3144C571.884 18.3144 571.458 32.85 559.432 33.5422C547.406 34.2344 539.962 15.3381 527.642 19.8926C515.322 24.4471 514.147 45.1707 514.147 45.1707C514.147 45.1707 525.894 36.1171 532.12 40.6854C538.346 45.2537 536.951 52.3 533.589 51.1787C530.226 50.0574 511.886 46.2089 511.255 59.2494C511.003 62.9613 511.552 66.6827 512.867 70.1895C514.181 73.6964 516.235 76.916 518.905 79.6546C518.905 79.6546 531.929 56.7161 541.386 60.8968C550.842 65.0775 533.574 68.7183 526.702 77.1767C519.83 85.635 515.351 94.5778 521.431 97.6372C527.51 100.697 535.806 108.075 535.806 108.075C535.806 108.075 534.161 96.0867 541.768 86.7701C549.374 77.4535 555.673 82.0357 548.742 90.494C541.812 98.9523 545.262 112.256 545.262 112.256C545.262 112.256 565.658 113.64 580.254 107.992C594.85 102.344 594.938 97.0558 590.224 92.2937C585.511 87.5315 569.285 81.1359 574.072 75.197C578.859 69.2582 591.399 101.292 598.521 94.3148C605.642 87.3377 607.801 79.4746 603.807 73.8542L599.798 68.3169C599.798 68.3169 583.558 61.9212 578.859 57.1591C574.16 52.3969 580.944 54.6119 588.609 57.4913C596.274 60.3707 612.925 69.7704 614.115 66.5726C615.304 63.3748 609.842 47.2749 606.773 42.3189C603.704 37.363 580.019 41.779 577.317 39.8271C574.615 37.8752 587.42 30.9673 591.502 31.2304C594.541 31.4747 597.565 31.8674 600.562 32.407C600.562 32.407 600.914 23.2289 587.64 14.9367C574.366 6.64445 571.884 18.3144 571.884 18.3144Z" fill="#6B6BC4"/>
<path opacity="0.2" d="M571.884 18.3144C571.884 18.3144 571.458 32.85 559.432 33.5422C547.406 34.2344 539.962 15.3381 527.642 19.8926C515.322 24.4471 514.147 45.1707 514.147 45.1707C514.147 45.1707 525.894 36.1171 532.12 40.6854C538.346 45.2537 536.951 52.3 533.589 51.1787C530.226 50.0574 511.886 46.2089 511.255 59.2494C511.003 62.9613 511.552 66.6827 512.867 70.1895C514.181 73.6964 516.235 76.916 518.905 79.6546C518.905 79.6546 531.929 56.7161 541.386 60.8968C550.842 65.0775 533.574 68.7183 526.702 77.1767C519.83 85.635 515.351 94.5778 521.431 97.6372C527.51 100.697 535.806 108.075 535.806 108.075C535.806 108.075 534.161 96.0867 541.768 86.7701C549.374 77.4535 555.673 82.0357 548.742 90.494C541.812 98.9523 545.262 112.256 545.262 112.256C545.262 112.256 565.658 113.64 580.254 107.992C594.85 102.344 594.938 97.0558 590.224 92.2937C585.511 87.5315 569.285 81.1359 574.072 75.197C578.859 69.2582 591.399 101.292 598.521 94.3148C605.642 87.3377 607.801 79.4746 603.807 73.8542L599.798 68.3169C599.798 68.3169 583.558 61.9212 578.859 57.1591C574.16 52.3969 580.944 54.6119 588.609 57.4913C596.274 60.3707 612.925 69.7704 614.115 66.5726C615.304 63.3748 609.842 47.2749 606.773 42.3189C603.704 37.363 580.019 41.779 577.317 39.8271C574.615 37.8752 587.42 30.9673 591.502 31.2304C594.541 31.4747 597.565 31.8674 600.562 32.407C600.562 32.407 600.914 23.2289 587.64 14.9367C574.366 6.64445 571.884 18.3144 571.884 18.3144Z" fill="#263238"/>
<path d="M565.688 89.4569C561.797 77.3024 557.113 60.0673 557.407 48.3281" stroke="#263238" stroke-linecap="round" stroke-linejoin="round"/>
<path d="M570.695 103.866C570.695 103.866 569.417 100.572 567.655 95.4219" stroke="#263238" stroke-linecap="round" stroke-linejoin="round"/>
<path d="M562.663 45.3912C562.663 45.3912 584.439 45.0313 600.841 52.922" stroke="#263238" stroke-linecap="round" stroke-linejoin="round"/>
<path d="M563.34 62.0861C563.34 62.0861 563.619 58.2376 581.592 71.292" stroke="#263238" stroke-linecap="round" stroke-linejoin="round"/>
<path d="M551.121 43.7581C551.121 43.7581 549.888 34.7599 537.245 30.9668" stroke="#263238" stroke-linecap="round" stroke-linejoin="round"/>
<path d="M554.574 57.0631L543.928 56.0664" stroke="#263238" stroke-linecap="round" stroke-linejoin="round"/>
<path d="M556.422 70.5469C556.422 70.5469 537.054 76.721 530.828 84.3903" stroke="#263238" stroke-linecap="round" stroke-linejoin="round"/>
<path d="M442.74 115.078C442.74 115.078 503.986 153.244 502.944 301.009" stroke="#263238" stroke-width="2" stroke-linecap="round" stroke-linejoin="round"/>
<path d="M518.244 105.001C518.244 105.001 516.291 121.738 502.342 121.475C488.392 121.212 481.696 98.7441 467.027 102.897C452.358 107.05 448.922 130.861 448.922 130.861C448.922 130.861 463.312 121.461 470.111 127.289C476.909 133.117 474.516 141.133 470.727 139.527C466.939 137.921 446.205 131.83 444.15 146.836C443.482 151.099 443.739 155.445 444.905 159.612C446.071 163.779 448.122 167.679 450.934 171.076C450.934 171.076 468.246 145.77 478.759 151.432C489.273 157.094 468.951 159.738 460.111 168.916C451.271 178.095 445.266 187.965 451.976 192.049C458.687 196.133 467.512 205.38 467.512 205.38C467.512 205.38 466.763 191.357 476.527 181.32C486.292 171.284 493.047 177.084 484.207 186.234C475.367 195.385 478.025 211.042 478.025 211.042C478.025 211.042 501.417 214.378 518.817 209.228C536.217 204.079 536.834 197.918 531.886 191.993C526.937 186.068 508.847 177.25 515.043 170.854C521.24 164.459 532.414 202.487 541.342 195.08C550.27 187.674 553.529 178.773 549.477 171.948L545.409 165.123C545.409 165.123 527.319 156.291 522.37 150.366C517.422 144.441 525.028 147.598 533.589 151.626C542.15 155.654 560.431 167.947 562.105 164.376C563.779 160.804 559.168 141.728 556.026 135.734C552.883 129.74 525.19 132.73 522.253 130.196C519.316 127.663 534.793 120.88 539.477 121.544C542.94 122.104 546.371 122.83 549.756 123.718C549.756 123.718 551.092 113.141 536.614 102.399C522.135 91.6563 518.244 105.001 518.244 105.001Z" fill="#6B6BC4"/>
<path opacity="0.3" d="M518.244 105.001C518.244 105.001 516.291 121.738 502.342 121.475C488.392 121.212 481.696 98.7441 467.027 102.897C452.358 107.05 448.922 130.861 448.922 130.861C448.922 130.861 463.312 121.461 470.111 127.289C476.909 133.117 474.516 141.133 470.727 139.527C466.939 137.921 446.205 131.83 444.15 146.836C443.482 151.099 443.739 155.445 444.905 159.612C446.071 163.779 448.122 167.679 450.934 171.076C450.934 171.076 468.246 145.77 478.759 151.432C489.273 157.094 468.951 159.738 460.111 168.916C451.271 178.095 445.266 187.965 451.976 192.049C458.687 196.133 467.512 205.38 467.512 205.38C467.512 205.38 466.763 191.357 476.527 181.32C486.292 171.284 493.047 177.084 484.207 186.234C475.367 195.385 478.025 211.042 478.025 211.042C478.025 211.042 501.417 214.378 518.817 209.228C536.217 204.079 536.834 197.918 531.886 191.993C526.937 186.068 508.847 177.25 515.043 170.854C521.24 164.459 532.414 202.487 541.342 195.08C550.27 187.674 553.529 178.773 549.477 171.948L545.409 165.123C545.409 165.123 527.319 156.291 522.37 150.366C517.422 144.441 525.028 147.598 533.589 151.626C542.15 155.654 560.431 167.947 562.105 164.376C563.779 160.804 559.168 141.728 556.026 135.734C552.883 129.74 525.19 132.73 522.253 130.196C519.316 127.663 534.793 120.88 539.477 121.544C542.94 122.104 546.371 122.83 549.756 123.718C549.756 123.718 551.092 113.141 536.614 102.399C522.135 91.6563 518.244 105.001 518.244 105.001Z" fill="#263238"/>
<path d="M503.971 186.484C500.697 172.114 497.026 151.875 498.538 138.295" stroke="#263238" stroke-linecap="round" stroke-linejoin="round"/>
<path d="M508.317 203.566C508.317 203.566 507.172 199.648 505.659 193.543" stroke="#263238" stroke-linecap="round" stroke-linejoin="round"/>
<path d="M504.94 135.373C504.94 135.373 530.108 136.882 548.287 147.472" stroke="#263238" stroke-linecap="round" stroke-linejoin="round"/>
<path d="M504.002 154.7C504.002 154.7 504.721 150.284 524.134 166.938" stroke="#263238" stroke-linecap="round" stroke-linejoin="round"/>
<path d="M491.725 132.468C491.725 132.468 491.211 121.974 477.041 116.479" stroke="#263238" stroke-linecap="round" stroke-linejoin="round"/>
<path d="M494.383 148.11L482.195 146.02" stroke="#263238" stroke-linecap="round" stroke-linejoin="round"/>
<path d="M495.176 163.85C495.176 163.85 472.211 169.207 464.267 177.513" stroke="#263238" stroke-linecap="round" stroke-linejoin="round"/>
<path d="M466.615 231.504C466.615 231.504 506.056 259.883 510.212 301.967L501.9 161.055" stroke="#263238" stroke-width="2" stroke-linecap="round" stroke-linejoin="round"/>
<path d="M516.438 301.012C516.438 301.012 486.336 94.5371 573.529 94.5371" stroke="#263238" stroke-width="2" stroke-linecap="round" stroke-linejoin="round"/>
<path d="M627.434 133.105C617.787 127.72 607.126 127.567 601.899 121.919C596.671 116.271 606.935 113.378 612.427 115.524C617.919 117.669 630.65 123.83 633.058 125.214C635.466 126.598 633.807 106.899 629.328 99.493C624.85 92.0868 612.618 87.7815 606.51 93.8311C593.617 106.595 573.515 89.858 574.895 79.8907C576.276 69.9235 566.393 59.1256 545.19 65.4659C523.986 71.8062 531.886 75.2532 531.886 75.2532C531.886 75.2532 546.952 83.9469 556.599 89.332C566.246 94.7171 582.222 99.3269 578.801 103.245C575.38 107.162 566.114 104.767 558.391 98.9254C550.667 93.0835 528.436 79.1432 526.189 84.3206C523.942 89.4981 515.91 103.701 515.91 103.701C525.728 105.121 535.436 107.151 544.97 109.779C557.877 113.599 560.52 120.286 550.432 120.853C540.344 121.421 522.033 114.236 516.321 123.331C510.609 132.426 514.53 155.78 514.53 155.78C514.53 155.78 533.002 143.972 542.429 144.013C551.856 144.055 545.821 148.983 535.293 155.379C530.723 158.012 526.311 160.882 522.078 163.976L531.681 187.205C531.681 187.205 547.525 185.294 553.78 185.71L560.035 186.125C560.035 186.125 560.035 161.844 567.377 154.645C574.719 147.447 576.099 164.1 577.656 168.35C579.212 172.6 574.514 185.322 574.514 185.322C574.514 185.322 592.81 175.881 598.742 172.129L604.615 168.378C604.615 168.378 597.773 150.741 593.118 145.702C588.463 140.663 582.134 141.411 587.494 137.036C592.854 132.662 600.827 134.96 605.394 141.189C609.96 147.419 615.408 159.518 615.408 159.518C615.408 159.518 622.236 160.556 631.12 151.087C640.003 141.619 637.096 138.476 627.434 133.105ZM543.575 159.836C536.482 156.5 553.398 149.828 553.398 149.828C559.521 148.983 550.667 163.187 543.575 159.836ZM555.513 128.647C552.488 127.263 561.562 124.383 561.562 124.383C574.646 126.751 558.537 130.073 555.513 128.647Z" fill="#6B6BC4"/>
<path d="M543.383 176.863C541.552 178.709 539.658 180.49 537.7 182.207" stroke="#263238" stroke-linecap="round" stroke-linejoin="round"/>
<path d="M579.827 124.908C573.044 138.226 562.794 155.613 549.3 170.716" stroke="#263238" stroke-linecap="round" stroke-linejoin="round"/>
<path d="M583.029 118.194C587.288 109.237 589.461 103.326 589.461 103.326C589.461 103.326 597.375 106.815 605.04 104.96C609.569 103.841 614.314 103.751 618.887 104.697" stroke="#263238" stroke-linecap="round" stroke-linejoin="round"/>
<path d="M575.321 116.007C577.332 114.373 546.379 99.8652 546.379 99.8652" stroke="#263238" stroke-linecap="round" stroke-linejoin="round"/>
<path d="M591.575 124.799C591.575 124.799 606.259 130.502 614.364 139.334" stroke="#263238" stroke-linecap="round" stroke-linejoin="round"/>
<path d="M572.075 134.156C564.233 132.907 556.281 132.378 548.331 132.578C540.339 132.664 532.41 133.935 524.837 136.344" stroke="#263238" stroke-linecap="round" stroke-linejoin="round"/>
<path d="M575.79 143.279C575.79 143.279 592.016 153.247 591.707 165.664" stroke="#263238" stroke-linecap="round" stroke-linejoin="round"/>
<path d="M458.085 110.897C458.085 110.897 448.335 117.583 442.123 110.897C435.912 104.21 444.737 90.8516 435.927 85.8403C427.117 80.8289 412.888 89.9933 412.888 89.9933C412.888 89.9933 424.4 92.4989 424.4 98.2993C424.4 104.1 419.085 106.605 418.203 104.155C417.322 101.705 411.111 89.1073 402.257 94.9631C399.696 96.5846 397.511 98.6797 395.835 101.121C394.159 103.563 393.027 106.3 392.507 109.166C392.507 109.166 413.769 105.816 415.546 113.319C417.322 120.823 406.735 112.489 397.822 112.489C388.909 112.489 380.98 114.164 381.861 119.175C382.347 123.616 382.347 128.093 381.861 132.534C381.861 132.534 388.953 125.862 398.703 125.862C408.453 125.862 408.453 131.703 399.584 131.703C390.715 131.703 383.638 140.01 383.638 140.01C383.638 140.01 392.448 152.538 403.138 158.38C413.828 164.222 417.308 161.73 418.203 156.719C419.099 151.707 415.546 139.165 421.742 139.165C427.939 139.165 412.932 161.73 420.861 162.56C428.791 163.391 435.031 160.885 436.808 155.874L438.585 150.863C438.585 150.863 435.031 138.404 435.927 133.323C436.823 128.243 438.585 133.323 440.332 139.165C442.079 145.007 443.871 159.224 446.529 158.38C449.186 157.535 457.16 146.682 458.936 142.515C460.713 138.348 446.529 126.637 446.529 124.131C446.529 121.625 457.16 125.806 458.936 128.284C460.225 130.171 461.406 132.121 462.475 134.126C462.475 134.126 468.687 129.973 467.791 118.248C466.895 106.522 458.085 110.897 458.085 110.897Z" fill="#6B6BC4"/>
<path d="M408.438 141.201C414.562 133.131 423.651 122.181 431.492 116.754" stroke="#263238" stroke-linecap="round" stroke-linejoin="round"/>
<path d="M401.361 151.004C401.361 151.004 402.918 148.692 405.458 145.203" stroke="#263238" stroke-linecap="round" stroke-linejoin="round"/>
<path d="M435.927 118.416C435.927 118.416 446.558 130.958 449.216 144.317" stroke="#263238" stroke-linecap="round" stroke-linejoin="round"/>
<path d="M425.296 126.777C425.296 126.777 427.954 125.102 427.954 141.811" stroke="#263238" stroke-linecap="round" stroke-linejoin="round"/>
<path d="M431.522 110.899C431.522 110.899 436.838 105.887 433.299 96.6953" stroke="#263238" stroke-linecap="round" stroke-linejoin="round"/>
<path d="M424.4 119.259L419.98 112.572" stroke="#263238" stroke-linecap="round" stroke-linejoin="round"/>
<path d="M416.426 126.777C416.426 126.777 403.137 118.471 395.164 118.471" stroke="#263238" stroke-linecap="round" stroke-linejoin="round"/>
<path d="M467.204 216.136C467.204 216.136 495.236 201.462 497.306 234.728C498.598 255.285 501.065 345.696 502.768 411.799" stroke="#263238" stroke-width="2" stroke-linecap="round" stroke-linejoin="round"/>
<path d="M511.873 237.664C511.873 237.664 494.663 273.878 496.895 411.787" stroke="#263238" stroke-width="2" stroke-linecap="round" stroke-linejoin="round"/>
<path d="M489.405 222.838C489.405 222.838 500.125 229.317 506.233 221.911C512.342 214.505 502.107 200.91 511.123 195.11C520.139 189.31 535.689 198.169 535.689 198.169C535.689 198.169 523.707 201.478 524.089 207.652C524.47 213.826 530.256 216.152 531.019 213.452C531.783 210.753 537.495 197.173 547.172 202.821C549.978 204.383 552.419 206.465 554.347 208.942C556.276 211.419 557.651 214.239 558.39 217.232C558.39 217.232 535.748 214.961 534.367 222.991C532.987 231.02 543.662 221.606 553.001 221.066C562.34 220.526 570.871 221.842 570.269 227.185C569.667 232.529 571.15 241.278 571.15 241.278C571.15 241.278 563.236 234.647 552.957 235.214C542.678 235.782 543.06 241.956 552.399 241.43C561.738 240.904 569.77 249.307 569.77 249.307C569.77 249.307 561.253 263.04 550.431 269.837C539.609 276.634 535.748 274.183 534.426 268.951C533.104 263.718 536.085 250.304 529.536 250.664C522.987 251.023 540.373 273.934 532.018 275.277C523.663 276.62 516.952 274.35 514.75 269.172L512.547 263.981C512.547 263.981 515.484 250.567 514.206 245.334C512.929 240.101 511.402 245.486 509.919 251.757C508.436 258.028 507.496 273.104 504.633 272.384C501.769 271.664 492.651 260.672 490.507 256.367C488.363 252.062 502.547 238.897 502.386 236.266C502.224 233.636 491.27 238.647 489.567 241.388C488.335 243.46 487.217 245.59 486.219 247.77C486.219 247.77 479.406 243.728 479.567 231.338C479.729 218.948 489.405 222.838 489.405 222.838Z" fill="#6B6BC4"/>
<path opacity="0.3" d="M489.405 222.838C489.405 222.838 500.125 229.317 506.233 221.911C512.342 214.505 502.107 200.91 511.123 195.11C520.139 189.31 535.689 198.169 535.689 198.169C535.689 198.169 523.707 201.478 524.089 207.652C524.47 213.826 530.256 216.152 531.019 213.452C531.783 210.753 537.495 197.173 547.172 202.821C549.978 204.383 552.419 206.465 554.347 208.942C556.276 211.419 557.651 214.239 558.39 217.232C558.39 217.232 535.748 214.961 534.367 222.991C532.987 231.02 543.662 221.606 553.001 221.066C562.34 220.526 570.871 221.842 570.269 227.185C569.667 232.529 571.15 241.278 571.15 241.278C571.15 241.278 563.236 234.647 552.957 235.214C542.678 235.782 543.06 241.956 552.399 241.43C561.738 240.904 569.77 249.307 569.77 249.307C569.77 249.307 561.253 263.04 550.431 269.837C539.609 276.634 535.748 274.183 534.426 268.951C533.104 263.718 536.085 250.304 529.536 250.664C522.987 251.023 540.373 273.934 532.018 275.277C523.663 276.62 516.952 274.35 514.75 269.172L512.547 263.981C512.547 263.981 515.484 250.567 514.206 245.334C512.929 240.101 511.402 245.486 509.919 251.757C508.436 258.028 507.496 273.104 504.633 272.384C501.769 271.664 492.651 260.672 490.507 256.367C488.363 252.062 502.547 238.897 502.386 236.266C502.224 233.636 491.27 238.647 489.567 241.388C488.335 243.46 487.217 245.59 486.219 247.77C486.219 247.77 479.406 243.728 479.567 231.338C479.729 218.948 489.405 222.838 489.405 222.838Z" fill="#263238"/>
<path d="M543.75 251.881C536.76 243.727 526.467 232.708 517.833 227.447" stroke="#263238" stroke-linecap="round" stroke-linejoin="round"/>
<path d="M551.929 261.805C551.929 261.805 550.138 259.452 547.23 255.922" stroke="#263238" stroke-linecap="round" stroke-linejoin="round"/>
<path d="M513.267 229.469C513.267 229.469 502.885 243.312 500.962 257.557" stroke="#263238" stroke-linecap="round" stroke-linejoin="round"/>
<path d="M525.028 237.649C525.028 237.649 522.091 236.044 523.222 253.666" stroke="#263238" stroke-linecap="round" stroke-linejoin="round"/>
<path d="M517.436 221.274C517.436 221.274 511.563 216.304 514.632 206.406" stroke="#263238" stroke-linecap="round" stroke-linejoin="round"/>
<path d="M525.469 229.677L529.698 222.367" stroke="#263238" stroke-linecap="round" stroke-linejoin="round"/>
<path d="M534.382 237.138C534.382 237.138 547.847 227.545 556.246 227.074" stroke="#263238" stroke-linecap="round" stroke-linejoin="round"/>
<path d="M451.198 196.729C451.198 196.729 451.624 211.265 463.65 211.957C475.676 212.649 483.135 193.753 495.44 198.307C507.745 202.862 508.949 223.585 508.949 223.585C508.949 223.585 497.202 214.532 490.976 219.1C484.75 223.668 486.145 230.701 489.508 229.593C492.87 228.486 511.211 224.624 511.857 237.65C512.109 241.363 511.56 245.086 510.243 248.594C508.925 252.101 506.867 255.32 504.192 258.055C504.192 258.055 491.182 235.131 481.711 239.311C472.24 243.492 489.537 247.119 496.395 255.591C503.252 264.063 507.877 273.034 501.74 276.066C495.602 279.097 487.379 286.504 487.379 286.504C487.379 286.504 489.023 274.515 481.402 265.199C473.782 255.882 467.512 260.45 474.428 268.923C481.344 277.395 477.908 290.684 477.908 290.684C477.908 290.684 457.512 292 442.931 286.421C428.35 280.842 428.247 275.484 432.961 270.722C437.674 265.96 453.885 259.551 449.039 253.626C444.194 247.701 431.712 279.707 424.591 272.743C417.469 265.78 415.369 257.889 419.319 252.269L423.313 246.662C423.313 246.662 439.554 240.267 444.252 235.505C448.951 230.742 442.182 232.957 434.502 235.837C426.823 238.716 410.186 248.102 409.011 244.918C407.837 241.734 413.27 225.62 416.353 220.664C419.437 215.708 443.107 220.124 445.794 218.159C448.481 216.193 435.692 209.313 431.624 209.576C428.585 209.82 425.561 210.213 422.564 210.753C422.564 210.753 422.212 201.56 435.471 193.268C448.731 184.976 451.198 196.729 451.198 196.729Z" fill="#6B6BC4"/>
<path opacity="0.2" d="M451.198 196.729C451.198 196.729 451.624 211.265 463.65 211.957C475.676 212.649 483.135 193.753 495.44 198.307C507.745 202.862 508.949 223.585 508.949 223.585C508.949 223.585 497.202 214.532 490.976 219.1C484.75 223.668 486.145 230.701 489.508 229.593C492.87 228.486 511.211 224.624 511.857 237.65C512.109 241.363 511.56 245.086 510.243 248.594C508.925 252.101 506.867 255.32 504.192 258.055C504.192 258.055 491.182 235.131 481.711 239.311C472.24 243.492 489.537 247.119 496.395 255.591C503.252 264.063 507.877 273.034 501.74 276.066C495.602 279.097 487.379 286.504 487.379 286.504C487.379 286.504 489.023 274.515 481.402 265.199C473.782 255.882 467.512 260.45 474.428 268.923C481.344 277.395 477.908 290.684 477.908 290.684C477.908 290.684 457.512 292 442.931 286.421C428.35 280.842 428.247 275.484 432.961 270.722C437.674 265.96 453.885 259.551 449.039 253.626C444.194 247.701 431.712 279.707 424.591 272.743C417.469 265.78 415.369 257.889 419.319 252.269L423.313 246.662C423.313 246.662 439.554 240.267 444.252 235.505C448.951 230.742 442.182 232.957 434.502 235.837C426.823 238.716 410.186 248.102 409.011 244.918C407.837 241.734 413.27 225.62 416.353 220.664C419.437 215.708 443.107 220.124 445.794 218.159C448.481 216.193 435.692 209.313 431.624 209.576C428.585 209.82 425.561 210.213 422.564 210.753C422.564 210.753 422.212 201.56 435.471 193.268C448.731 184.976 451.198 196.729 451.198 196.729Z" fill="#263238"/>
<path d="M457.394 267.83C461.285 255.675 465.969 238.427 465.675 226.701" stroke="#263238" stroke-linecap="round" stroke-linejoin="round"/>
<path d="M452.388 282.242C452.388 282.242 453.665 278.933 455.427 273.783" stroke="#263238" stroke-linecap="round" stroke-linejoin="round"/>
<path d="M460.42 223.765C460.42 223.765 438.644 223.391 422.242 231.295" stroke="#263238" stroke-linecap="round" stroke-linejoin="round"/>
<path d="M459.744 240.446C459.744 240.446 459.465 236.611 441.507 249.652" stroke="#263238" stroke-linecap="round" stroke-linejoin="round"/>
<path d="M471.96 222.131C471.96 222.131 473.193 213.133 485.851 209.34" stroke="#263238" stroke-linecap="round" stroke-linejoin="round"/>
<path d="M468.525 235.42L479.171 234.438" stroke="#263238" stroke-linecap="round" stroke-linejoin="round"/>
<path d="M466.66 248.918C466.66 248.918 486.028 255.092 492.254 262.761" stroke="#263238" stroke-linecap="round" stroke-linejoin="round"/>
<path d="M580.358 293.451C580.358 293.451 538.715 319.421 524.662 411.466" stroke="#263238" stroke-width="2" stroke-linecap="round" stroke-linejoin="round"/>
<path d="M504.839 283.374C504.839 283.374 506.792 300.097 520.741 299.848C534.691 299.599 541.402 277.103 556.056 281.27C570.711 285.437 574.176 309.234 574.176 309.234C574.176 309.234 559.771 299.834 552.972 305.662C546.174 311.49 548.567 319.506 552.37 317.9C556.174 316.294 576.907 310.231 578.948 325.209C579.614 329.47 579.356 333.814 578.19 337.978C577.024 342.142 574.974 346.04 572.164 349.435C572.164 349.435 554.867 324.143 544.338 329.791C533.81 335.439 554.147 338.097 562.972 347.262C571.797 356.426 577.817 366.324 571.107 370.408C564.396 374.492 555.572 383.781 555.572 383.781C555.572 383.781 556.276 369.799 546.556 359.735C536.835 349.67 530.036 355.485 538.876 364.649C547.716 373.813 545.073 389.456 545.073 389.456C545.073 389.456 521.667 392.793 504.281 387.629C486.895 382.466 486.249 376.319 491.198 370.408C496.146 364.497 514.237 355.665 508.055 349.255C501.873 342.846 490.669 380.901 481.756 373.495C472.843 366.089 469.554 357.187 473.621 350.349L477.674 343.524C477.674 343.524 495.779 334.692 500.713 328.781C505.646 322.87 498.07 326.012 489.494 330.041C480.919 334.069 462.667 346.362 460.978 342.79C459.29 339.219 463.915 320.143 467.057 314.148C470.2 308.154 497.893 311.13 500.83 308.611C503.767 306.091 488.29 299.294 483.621 299.959C480.157 300.513 476.726 301.238 473.342 302.132C473.342 302.132 472.006 291.556 486.484 280.813C500.962 270.071 504.839 283.374 504.839 283.374Z" fill="#6B6BC4"/>
<path opacity="0.3" d="M504.839 283.374C504.839 283.374 506.792 300.097 520.741 299.848C534.691 299.599 541.402 277.103 556.056 281.27C570.711 285.437 574.176 309.234 574.176 309.234C574.176 309.234 559.771 299.834 552.972 305.662C546.174 311.49 548.567 319.506 552.37 317.9C556.174 316.294 576.907 310.231 578.948 325.209C579.614 329.47 579.356 333.814 578.19 337.978C577.024 342.142 574.974 346.04 572.164 349.435C572.164 349.435 554.867 324.143 544.338 329.791C533.81 335.439 554.147 338.097 562.972 347.262C571.797 356.426 577.817 366.324 571.107 370.408C564.396 374.492 555.572 383.781 555.572 383.781C555.572 383.781 556.276 369.799 546.556 359.735C536.835 349.67 530.036 355.485 538.876 364.649C547.716 373.813 545.073 389.456 545.073 389.456C545.073 389.456 521.667 392.793 504.281 387.629C486.895 382.466 486.249 376.319 491.198 370.408C496.146 364.497 514.237 355.665 508.055 349.255C501.873 342.846 490.669 380.901 481.756 373.495C472.843 366.089 469.554 357.187 473.621 350.349L477.674 343.524C477.674 343.524 495.779 334.692 500.713 328.781C505.646 322.87 498.07 326.012 489.494 330.041C480.919 334.069 462.667 346.362 460.978 342.79C459.29 339.219 463.915 320.143 467.057 314.148C470.2 308.154 497.893 311.13 500.83 308.611C503.767 306.091 488.29 299.294 483.621 299.959C480.157 300.513 476.726 301.238 473.342 302.132C473.342 302.132 472.006 291.556 486.484 280.813C500.962 270.071 504.839 283.374 504.839 283.374Z" fill="#263238"/>
<path d="M519.11 364.859C522.385 350.49 526.071 330.181 524.543 316.656" stroke="#263238" stroke-linecap="round" stroke-linejoin="round"/>
<path d="M514.778 381.925C514.778 381.925 515.924 378.007 517.436 371.916" stroke="#263238" stroke-linecap="round" stroke-linejoin="round"/>
<path d="M518.155 313.746C518.155 313.746 492.987 315.255 474.809 325.831" stroke="#263238" stroke-linecap="round" stroke-linejoin="round"/>
<path d="M519.081 333.059C519.081 333.059 518.376 328.643 498.949 345.311" stroke="#263238" stroke-linecap="round" stroke-linejoin="round"/>
<path d="M531.372 310.827C531.372 310.827 531.901 300.334 546.056 294.838" stroke="#263238" stroke-linecap="round" stroke-linejoin="round"/>
<path d="M528.699 326.483L540.887 324.393" stroke="#263238" stroke-linecap="round" stroke-linejoin="round"/>
<path d="M527.92 342.25C527.92 342.25 550.871 347.663 558.829 355.9" stroke="#263238" stroke-linecap="round" stroke-linejoin="round"/>
<path d="M516.967 411.012L521.181 339.441" stroke="#263238" stroke-width="2" stroke-linecap="round" stroke-linejoin="round"/>
<path d="M511.622 411.799C512.518 351.58 503.385 272.895 449.568 272.895" stroke="#263238" stroke-width="2" stroke-linecap="round" stroke-linejoin="round"/>
<path d="M395.65 311.463C405.297 306.092 415.972 305.926 421.2 300.291C426.427 294.657 416.163 291.75 410.671 293.882C405.18 296.014 392.449 302.188 390.026 303.572C387.603 304.957 389.292 285.271 393.756 277.865C398.22 270.459 410.466 266.153 416.574 272.203C429.467 284.967 449.569 268.23 448.203 258.249C446.838 248.268 456.705 237.553 477.909 243.838C499.112 250.123 491.198 253.611 491.198 253.611C491.198 253.611 476.147 262.319 466.499 267.69C456.852 273.061 440.861 277.685 444.297 281.603C447.733 285.52 456.97 283.139 464.708 277.284C472.446 271.428 494.634 257.529 496.91 262.706C499.186 267.884 507.188 282.156 507.188 282.156C497.366 283.583 487.653 285.618 478.114 288.247C465.207 292.068 462.564 298.755 472.652 299.322C482.74 299.89 501.065 292.691 506.762 301.786C512.46 310.881 508.569 334.235 508.569 334.235C508.569 334.235 490.096 322.441 480.669 322.482C471.242 322.524 477.277 327.438 487.806 333.848C492.373 336.485 496.785 339.355 501.021 342.444L491.432 365.591C491.432 365.591 475.589 363.68 469.407 364.096L463.151 364.511C463.151 364.511 463.151 340.23 455.81 333.017C448.468 325.805 447.102 342.486 445.531 346.736C443.96 350.986 448.688 363.694 448.688 363.694C448.688 363.694 430.392 354.253 424.46 350.501L418.586 346.75C418.586 346.75 425.429 329.127 430.069 324.074C434.709 319.021 441.052 319.797 435.707 315.408C430.362 311.02 422.36 313.346 417.793 319.561C413.226 325.777 407.867 337.987 407.867 337.987C407.867 337.987 401.039 339.039 392.17 329.556C383.301 320.073 386.003 316.848 395.65 311.463ZM479.509 338.208C486.602 334.872 469.774 328.186 469.774 328.186C463.563 327.341 472.432 341.545 479.509 338.208ZM467.571 307.019C470.596 305.635 461.536 302.742 461.536 302.742C448.438 305.123 464.561 308.445 467.571 307.019Z" fill="#6B6BC4"/>
<path d="M479.699 355.223C481.549 357.068 483.444 358.854 485.382 360.58" stroke="#263238" stroke-linecap="round" stroke-linejoin="round"/>
<path d="M443.342 303.238C450.111 316.556 460.375 333.929 473.869 349.046" stroke="#263238" stroke-linecap="round" stroke-linejoin="round"/>
<path d="M440.053 296.567C435.81 287.61 433.622 281.699 433.622 281.699C433.622 281.699 425.722 285.188 418.042 283.333C413.519 282.208 408.777 282.118 404.21 283.07" stroke="#263238" stroke-linecap="round" stroke-linejoin="round"/>
<path d="M447.763 294.38C445.766 292.732 476.704 278.238 476.704 278.238" stroke="#263238" stroke-linecap="round" stroke-linejoin="round"/>
<path d="M431.522 303.156C431.522 303.156 416.838 308.874 408.732 317.706" stroke="#263238" stroke-linecap="round" stroke-linejoin="round"/>
<path d="M451.008 312.516C458.854 311.266 466.811 310.738 474.766 310.938C482.758 311.026 490.686 312.296 498.26 314.703" stroke="#263238" stroke-linecap="round" stroke-linejoin="round"/>
<path d="M447.292 321.652C447.292 321.652 431.14 331.62 431.375 344.037" stroke="#263238" stroke-linecap="round" stroke-linejoin="round"/>
<path d="M565.013 289.274C565.013 289.274 574.763 295.96 580.959 289.274C587.156 282.587 578.36 269.228 587.17 264.203C595.981 259.178 610.209 268.356 610.209 268.356C610.209 268.356 598.683 270.862 598.683 276.662C598.683 282.463 603.998 284.968 604.894 282.504C605.789 280.04 611.971 267.47 620.84 273.312C623.397 274.938 625.579 277.034 627.254 279.475C628.93 281.916 630.065 284.651 630.59 287.515C630.59 287.515 609.314 284.179 607.552 291.669C605.789 299.158 616.362 290.838 625.275 290.838C634.188 290.838 642.103 292.499 641.222 297.51C640.743 301.957 640.743 306.437 641.222 310.883C641.222 310.883 634.129 304.197 624.379 304.197C614.629 304.197 614.629 310.053 623.498 310.053C632.367 310.053 639.445 318.359 639.445 318.359C639.445 318.359 630.634 330.818 619.959 336.743C609.284 342.668 605.775 340.079 604.894 335.068C604.013 330.056 607.552 317.528 601.34 317.528C595.129 317.528 610.151 340.079 602.236 340.923C594.321 341.768 588.051 339.248 586.275 334.237L584.513 329.226C584.513 329.226 588.051 316.836 587.17 311.797C586.289 306.758 584.513 311.797 582.765 317.653C581.018 323.508 579.212 337.698 576.554 336.867C573.896 336.037 565.923 325.17 564.161 320.989C562.399 316.808 576.554 305.124 576.554 302.619C576.554 300.113 565.923 304.28 564.161 306.772C562.868 308.664 561.682 310.618 560.607 312.627C560.607 312.627 554.411 308.474 555.292 296.749C556.173 285.024 565.013 289.274 565.013 289.274Z" fill="#6B6BC4"/>
<path d="M614.658 319.577C608.535 311.506 599.446 300.542 591.59 295.115" stroke="#263238" stroke-linecap="round" stroke-linejoin="round"/>
<path d="M621.721 329.377C621.721 329.377 620.164 327.051 617.624 323.576" stroke="#263238" stroke-linecap="round" stroke-linejoin="round"/>
<path d="M587.171 296.789C587.171 296.789 576.525 309.248 573.867 322.69" stroke="#263238" stroke-linecap="round" stroke-linejoin="round"/>
<path d="M597.801 305.15C597.801 305.15 595.144 303.475 595.144 320.184" stroke="#263238" stroke-linecap="round" stroke-linejoin="round"/>
<path d="M591.576 289.272C591.576 289.272 586.26 284.26 589.814 275.068" stroke="#263238" stroke-linecap="round" stroke-linejoin="round"/>
<path d="M598.682 297.618L603.116 290.945" stroke="#263238" stroke-linecap="round" stroke-linejoin="round"/>
<path d="M606.655 305.15C606.655 305.15 619.959 296.844 627.932 296.844" stroke="#263238" stroke-linecap="round" stroke-linejoin="round"/>
<path d="M291.938 420.539L400.922 416.316L460.435 484.509L313.465 496.581L291.938 420.539Z" fill="white" stroke="#263238" stroke-linecap="round" stroke-linejoin="round"/>
<path d="M313.948 467.496L431.757 459.758L439.524 468.978L317.223 477.74L313.948 467.496Z" stroke="#263238" stroke-width="0.5" stroke-linecap="round" stroke-linejoin="round"/>
<path d="M310.409 456.421L423.313 449.721L426.911 453.998L311.922 461.142L310.409 456.421Z" stroke="#263238" stroke-width="0.5" stroke-linecap="round" stroke-linejoin="round"/>
<path d="M307.546 447.464L416.441 441.553L419.774 445.512L308.926 451.797L307.546 447.464Z" stroke="#263238" stroke-width="0.5" stroke-linecap="round" stroke-linejoin="round"/>
<path d="M300.19 424.443L398.631 420.4L413.373 437.912L306.27 443.463L300.19 424.443Z" stroke="#263238" stroke-width="0.5" stroke-linecap="round" stroke-linejoin="round"/>
<path d="M305.124 439.876L410.598 434.615L413.373 437.91L306.269 443.461L305.124 439.876Z" fill="#D1D1D1" stroke="#263238" stroke-width="0.5" stroke-linecap="round" stroke-linejoin="round"/>
<path d="M377.676 463.121L374.167 457.265L426.911 453.998L431.757 459.757" stroke="#263238" stroke-width="0.5" stroke-linecap="round" stroke-linejoin="round"/>
<path d="M315.08 471.024L434.445 462.939L436.706 465.611L316.035 474L315.08 471.024Z" fill="#D1D1D1" stroke="#263238" stroke-width="0.5" stroke-linecap="round" stroke-linejoin="round"/>
<path d="M359.66 474.403L358.001 471.066" stroke="#263238" stroke-width="0.5" stroke-linecap="round" stroke-linejoin="round"/>
<path d="M342.333 473.019L350.894 472.424L351.804 474.376L343.185 474.999L342.333 473.019Z" fill="#D1D1D1" stroke="#263238" stroke-width="0.5" stroke-linecap="round" stroke-linejoin="round"/>
<path d="M375.753 466.832L373.829 463.537" stroke="#263238" stroke-width="0.5" stroke-linecap="round" stroke-linejoin="round"/>
<path d="M350.423 468.548L348.837 465.17" stroke="#263238" stroke-width="0.5" stroke-linecap="round" stroke-linejoin="round"/>
<path d="M406.896 455.23L411.258 461.059" stroke="#263238" stroke-width="0.5" stroke-linecap="round" stroke-linejoin="round"/>
<path d="M393.975 456.031L398.027 461.929" stroke="#263238" stroke-width="0.5" stroke-linecap="round" stroke-linejoin="round"/>
<path d="M379.643 456.892L376.927 452.559" stroke="#263238" stroke-width="0.5" stroke-linecap="round" stroke-linejoin="round"/>
<path d="M352.112 458.662L345.533 445.469" stroke="#263238" stroke-width="0.5" stroke-linecap="round" stroke-linejoin="round"/>
<path d="M423.314 449.718L419.776 445.51L347.546 449.607" stroke="#263238" stroke-width="0.5" stroke-linecap="round" stroke-linejoin="round"/>
<path d="M396.339 451.3L393.373 447.146" stroke="#263238" stroke-width="0.5" stroke-linecap="round" stroke-linejoin="round"/>
<path d="M407.969 431.654L304.037 436.652" stroke="#263238" stroke-width="0.5" stroke-linecap="round" stroke-linejoin="round"/>
<path d="M405.605 428.857L303.053 433.606" stroke="#263238" stroke-width="0.5" stroke-linecap="round" stroke-linejoin="round"/>
<path d="M403.329 426.145L302.113 430.657" stroke="#263238" stroke-width="0.5" stroke-linecap="round" stroke-linejoin="round"/>
<path d="M387.544 430.437L390.877 430.285L391.89 431.614L388.528 431.766L387.544 430.437Z" fill="#D1D1D1" stroke="#263238" stroke-width="0.5" stroke-linecap="round" stroke-linejoin="round"/>
<path d="M368.073 431.352L371.495 431.186L372.39 432.542L368.954 432.708L368.073 431.352Z" fill="#D1D1D1" stroke="#263238" stroke-width="0.5" stroke-linecap="round" stroke-linejoin="round"/>
<path d="M379.645 428.027L382.978 427.875L383.932 429.176L380.584 429.329L379.645 428.027Z" fill="#D1D1D1" stroke="#263238" stroke-width="0.5" stroke-linecap="round" stroke-linejoin="round"/>
<path d="M361.156 428.859L364.563 428.707L365.4 430.036L361.979 430.188L361.156 428.859Z" fill="#D1D1D1" stroke="#263238" stroke-width="0.5" stroke-linecap="round" stroke-linejoin="round"/>
<path d="M343.095 429.676L346.575 429.523L347.294 430.866L343.8 431.019L343.095 429.676Z" fill="#D1D1D1" stroke="#263238" stroke-width="0.5" stroke-linecap="round" stroke-linejoin="round"/>
<path d="M324.374 430.519L327.913 430.367L328.53 431.724L324.961 431.89L324.374 430.519Z" fill="#D1D1D1" stroke="#263238" stroke-width="0.5" stroke-linecap="round" stroke-linejoin="round"/>
<path d="M385.943 429.745L383.902 426.99" stroke="#263238" stroke-width="0.5" stroke-linecap="round" stroke-linejoin="round"/>
<path d="M367.808 430.576L365.987 427.779" stroke="#263238" stroke-width="0.5" stroke-linecap="round" stroke-linejoin="round"/>
<path d="M349.277 431.434L347.706 428.596" stroke="#263238" stroke-width="0.5" stroke-linecap="round" stroke-linejoin="round"/>
<path d="M330.336 432.319L329.015 429.426" stroke="#263238" stroke-width="0.5" stroke-linecap="round" stroke-linejoin="round"/>
<path d="M401.067 423.459L301.188 427.737" stroke="#263238" stroke-width="0.5" stroke-linecap="round" stroke-linejoin="round"/>
<path d="M389.673 424.746L392.918 424.607L393.902 425.853L390.657 426.006L389.673 424.746Z" fill="#D1D1D1" stroke="#263238" stroke-width="0.5" stroke-linecap="round" stroke-linejoin="round"/>
<path d="M359.425 426.062L362.773 425.91L363.595 427.198L360.218 427.35L359.425 426.062Z" fill="#D1D1D1" stroke="#263238" stroke-width="0.5" stroke-linecap="round" stroke-linejoin="round"/>
<path d="M341.599 426.822L345.02 426.684L345.739 427.985L342.289 428.137L341.599 426.822Z" fill="#D1D1D1" stroke="#263238" stroke-width="0.5" stroke-linecap="round" stroke-linejoin="round"/>
<path d="M318.09 427.848L321.614 427.695L322.172 429.024L318.633 429.177L318.09 427.848Z" fill="#D1D1D1" stroke="#263238" stroke-width="0.5" stroke-linecap="round" stroke-linejoin="round"/>
<path d="M395.899 426.394L393.799 423.764" stroke="#263238" stroke-width="0.5" stroke-linecap="round" stroke-linejoin="round"/>
<path d="M365.959 427.737L364.227 425.037" stroke="#263238" stroke-width="0.5" stroke-linecap="round" stroke-linejoin="round"/>
<path d="M347.677 428.54L346.165 425.812" stroke="#263238" stroke-width="0.5" stroke-linecap="round" stroke-linejoin="round"/>
<path d="M323.948 429.607L322.744 426.824" stroke="#263238" stroke-width="0.5" stroke-linecap="round" stroke-linejoin="round"/>
<path d="M398.234 481.521L397.749 480.759L401.214 480.496L399.129 477.298L400.789 477.174L405.708 484.677L399.643 485.162L399.159 484.372L403.564 484.026L401.758 481.258L398.234 481.521Z" fill="#263238"/>
<path d="M397.249 483.456C397.998 484.632 397.249 485.491 394.958 485.684C392.667 485.878 390.935 485.2 390.23 484.009L387.881 480.078C387.205 478.956 387.881 478.126 390.215 477.96C392.55 477.794 394.106 478.43 394.797 479.552L397.249 483.456ZM393.123 479.635C392.857 479.269 392.482 478.986 392.046 478.821C391.609 478.655 391.131 478.616 390.67 478.707C389.452 478.79 389.129 479.233 389.54 479.912L391.963 483.912C392.227 484.296 392.609 484.594 393.057 484.77C393.505 484.945 393.999 484.989 394.474 484.895C395.692 484.798 396.03 484.328 395.604 483.636L393.123 479.635Z" fill="#263238"/>
<path d="M386.252 486.226C383.8 486.42 382.419 485.866 381.773 484.703L381.406 484.08C380.936 483.236 381.23 482.696 382.434 482.35C381.873 482.383 381.313 482.272 380.814 482.028C380.314 481.784 379.895 481.417 379.6 480.966L378.939 479.803C378.773 479.44 378.491 479.135 378.132 478.931L379.85 478.792C380.199 479.009 380.474 479.317 380.643 479.678L381.318 480.855C381.817 481.713 382.787 481.921 384.255 481.81L385.459 481.727L383.594 478.529L385.268 478.391L389.776 486.005L386.252 486.226ZM384.534 482.53C383.183 482.641 382.493 482.917 382.963 483.762L383.389 484.496C383.785 485.202 384.505 485.52 385.797 485.423L387.485 485.298L385.811 482.433L384.534 482.53Z" fill="#263238"/>
<path d="M371.054 479.414L372.698 479.289L378.572 485.173L375.224 479.081L376.692 478.971L380.951 486.64L378.513 486.834L372.64 480.853L373.447 487.249L370.98 487.443L367.001 479.704L368.616 479.58L371.847 485.754L371.054 479.414Z" fill="#263238"/>
<path d="M440.45 470.611L392.037 474.128" stroke="#263238" stroke-width="0.5" stroke-miterlimit="10"/>
<path d="M381.421 474.9L351.055 477.101" stroke="#263238" stroke-width="0.5" stroke-miterlimit="10"/>
<path d="M342.612 477.727L317.591 479.54" stroke="#263238" stroke-width="0.5" stroke-miterlimit="10"/>
<path d="M393.344 202.893C382.925 205.8 372.774 209.504 362.993 213.967C346.84 221.36 315.035 232.434 299.852 237.972C284.669 243.509 275.389 257.809 272.452 264.731C269.515 271.653 256.785 301.181 256.785 301.181C256.785 301.181 229.869 340.87 223.012 350.56C216.154 360.251 206.86 373.637 206.375 386.096C205.89 398.555 213.218 405.477 230.354 405.477C247.49 405.477 254.832 399.94 263.143 391.634C271.454 383.328 298.384 342.711 302.304 338.101C306.225 333.491 316.988 315.952 316.988 315.952C316.988 315.952 322.377 361.635 322.377 375.935V409.63H476.557C476.557 409.63 483.899 358.866 485.368 354.713C486.836 350.56 498.084 320.562 498.084 320.562C498.084 320.562 538.714 382.4 545.498 390.706C552.282 399.012 571.65 416.51 590.621 409.505C609.593 402.501 605.702 383.314 595.423 360.251C585.144 337.188 567.098 297.955 567.098 296.086C567.098 294.218 559.756 267.015 529.904 245.779C500.051 224.544 470.684 219.477 463.827 216.251C456.969 213.026 434.943 202.893 393.344 202.893Z" fill="#2C2BAB" stroke="#263238" stroke-linecap="round" stroke-linejoin="round"/>
<path d="M297.414 285.953L316.503 314.111C316.503 314.111 300.835 298.883 291.041 296.571" stroke="#263238" stroke-linecap="round" stroke-linejoin="round"/>
<path d="M316.505 314.109L305.242 310.413C305.242 310.413 294.963 304.876 286.638 307.187" stroke="#263238" stroke-linecap="round" stroke-linejoin="round"/>
<path d="M375.049 246.734C376.15 254.334 378.69 263.776 384.535 270.268" stroke="#263238" stroke-linecap="round" stroke-linejoin="round"/>
<path d="M374.255 234.275C374.255 234.275 374.151 236.919 374.419 240.906" stroke="#263238" stroke-linecap="round" stroke-linejoin="round"/>
<path d="M379.615 275.805C380.994 277.133 382.466 278.372 384.02 279.515" stroke="#263238" stroke-linecap="round" stroke-linejoin="round"/>
<path d="M365.93 255.039C368.603 261.871 372.546 268.2 377.574 273.728" stroke="#263238" stroke-linecap="round" stroke-linejoin="round"/>
<path d="M462.607 358.146C459.274 363.255 456.117 367.38 453.547 369.484" stroke="#263238" stroke-linecap="round" stroke-linejoin="round"/>
<path d="M487.321 312.256C487.321 312.256 475.941 336.51 465.295 353.786" stroke="#263238" stroke-linecap="round" stroke-linejoin="round"/>
<path d="M437.278 373.332C435.81 375.007 434.679 376.405 433.975 377.319" stroke="#263238" stroke-linecap="round" stroke-linejoin="round"/>
<path d="M456.001 352.402C456.001 352.402 446.985 362.287 440.333 369.942" stroke="#263238" stroke-linecap="round" stroke-linejoin="round"/>
<path d="M498.084 320.561C498.084 320.561 519.625 288.265 520.609 285.496" stroke="#263238" stroke-linecap="round" stroke-linejoin="round"/>
<path d="M514.56 308.117C520.962 303.231 530.58 297.043 540.183 295.188" stroke="#263238" stroke-linecap="round" stroke-linejoin="round"/>
<path d="M506.894 314.567C506.894 314.567 508.641 312.864 511.578 310.414" stroke="#263238" stroke-linecap="round" stroke-linejoin="round"/>
<path d="M533.824 290.107C527.631 293.152 521.735 296.705 516.203 300.725" stroke="#263238" stroke-linecap="round" stroke-linejoin="round"/>
<path d="M542.635 358.409C546.812 356.538 551.42 355.685 556.037 355.927C560.654 356.169 565.134 357.498 569.066 359.793" stroke="#263238" stroke-linecap="round" stroke-linejoin="round"/>
<path d="M547.04 352.401C547.04 352.401 564.161 349.176 576.892 356.554" stroke="#263238" stroke-linecap="round" stroke-linejoin="round"/>
<path d="M225.949 357.94C228.901 355.417 232.401 353.533 236.206 352.419C240.01 351.305 244.027 350.987 247.975 351.489" stroke="#263238" stroke-linecap="round" stroke-linejoin="round"/>
<path d="M256.257 352.568C257.46 353.378 258.617 354.246 259.722 355.171" stroke="#263238" stroke-linecap="round" stroke-linejoin="round"/>
<path d="M243.085 347.336C245.889 347.666 248.609 348.462 251.117 349.689" stroke="#263238" stroke-linecap="round" stroke-linejoin="round"/>
<path d="M389.923 214.896C389.923 214.896 385.518 232.435 386.986 245.351C388.455 258.267 403.623 278.118 416.354 282.728C429.085 287.338 452.564 273.965 460.89 266.116C469.216 258.267 469.7 233.349 469.7 233.349C469.7 233.349 457.013 207.517 430.054 200.125C403.094 192.732 389.923 214.896 389.923 214.896Z" fill="#ABABAB" stroke="#263238" stroke-linecap="round" stroke-linejoin="round"/>
<path d="M491.139 211.284C491.139 211.284 493.694 218.496 488.775 227.619C483.856 236.742 474.355 244.453 471.8 243.664C469.245 242.875 479.744 209.858 479.744 209.858C479.744 209.858 486.719 206.162 491.139 211.284Z" fill="#ABABAB" stroke="#263238" stroke-linecap="round" stroke-linejoin="round"/>
<path d="M383.153 184.925C383.153 184.925 378.322 191.002 379.923 201.135C381.523 211.269 387.984 221.388 390.671 221.388C393.358 221.388 394.43 186.96 394.43 186.96C394.43 186.96 389.056 181.381 383.153 184.925Z" fill="#ABABAB" stroke="#263238" stroke-linecap="round" stroke-linejoin="round"/>
<path d="M391.215 198.089C391.215 198.089 387.456 228.987 391.743 241.654C396.031 254.321 404.636 274.062 418.072 279.128C431.507 284.195 462.123 262.419 466.954 253.809C471.785 245.198 485.221 208.735 485.221 208.735C488.754 204.3 491.049 199.1 491.896 193.612C492.742 188.124 492.113 182.523 490.066 177.324C483.077 159.092 445.472 147.948 429.863 148.46C414.254 148.972 398.704 161.127 397.632 170.748C396.56 180.369 391.215 198.089 391.215 198.089Z" fill="#ABABAB" stroke="#263238" stroke-linecap="round" stroke-linejoin="round"/>
<path d="M426.133 216.834C426.133 216.834 414.312 203.157 403.563 207.725" stroke="#263238" stroke-width="2" stroke-linecap="round" stroke-linejoin="round"/>
<path d="M444.929 222.911C444.929 222.911 461.081 219.367 468.57 225.956" stroke="#263238" stroke-width="2" stroke-linecap="round" stroke-linejoin="round"/>
<path d="M405.179 219.879C405.179 219.879 408.629 229.569 422.638 228.448" stroke="#263238" stroke-linecap="round" stroke-linejoin="round"/>
<path d="M443.855 233.541C443.855 233.541 447.086 240.13 462.122 237.597" stroke="#263238" stroke-linecap="round" stroke-linejoin="round"/>
<path d="M417.382 242.76C416.906 244.811 417.218 246.955 418.263 248.809C420.011 251.287 424.386 254.859 427.602 254.859C430.818 254.859 437.528 253.765 439.276 252.09C440.397 251.005 441.382 249.802 442.213 248.505" stroke="#263238" stroke-linecap="round" stroke-linejoin="round"/>
<path d="M410.084 251.844C410.084 251.844 417.426 259.818 423.52 261.742C429.613 263.666 441.023 260.357 444.239 259.264" stroke="#263238" stroke-linecap="round" stroke-linejoin="round"/>
<path d="M516.482 163.231C515.983 159.909 518.494 155.16 518.993 152.323C519.492 149.485 515.469 144.252 511.959 139.988C509.246 136.575 507.824 132.403 507.921 128.138C507.921 125.286 504.412 122.919 501.387 121.023C497.709 118.715 494.333 116.006 491.329 112.952C489.317 110.585 480.771 111.055 479.259 111.055C477.746 111.055 471.212 105.85 467.188 103.954C463.165 102.057 455.118 105.338 455.118 105.338C455.118 105.338 445.559 101.074 443.547 101.074C441.536 101.074 432.975 104.397 432.975 104.397C430.14 105.543 427.188 106.41 424.165 106.985C423.616 106.85 423.056 106.762 422.491 106.722C421.36 105.338 411.302 111.028 411.302 111.028L402.257 112.412L398.894 117.548C395.678 117.88 388.145 119.015 387.617 122.49C386.941 126.92 387.617 128.816 385.605 131.336C383.593 133.855 376.222 133.232 378.263 138.922C380.304 144.612 384.959 149.042 378.924 152.212C372.889 155.382 369.541 161.058 372.889 164.214C376.237 167.37 378.924 171.8 378.263 174.334C377.602 176.867 376.912 182.557 379.599 183.816C381.967 185.109 384.212 186.591 386.31 188.246L389.658 195.168L391.669 199.598C391.669 199.598 395.017 189.478 397.705 188.219C400.392 186.959 397.705 192.648 403.079 192.648C408.453 192.648 413.798 168.616 417.763 167.979C421.727 167.343 433.915 188.855 445.941 188.855C457.967 188.855 472.827 178.902 478.877 178.902C484.926 178.902 480.213 202.92 480.213 207.973C480.213 213.026 481.549 218.079 481.549 219.989C481.549 221.9 488.26 211.129 492.959 208.596C494.251 207.904 495.807 207.059 497.437 206.09C497.437 206.312 497.364 206.436 497.364 206.436C497.364 206.436 513.971 196.469 515.983 193.161C517.994 189.852 516.482 186.986 516.482 184.149C516.482 181.311 518.494 178.93 518.993 174.666C519.492 170.402 516.981 166.54 516.482 163.231Z" fill="#263238" stroke="#263238" stroke-linecap="round" stroke-linejoin="round"/>
<path d="M569.095 369.165C569.095 369.165 550.755 362.81 537.568 367.78C524.382 372.75 493.429 384.558 472.358 388.282C452.587 391.584 432.492 392.833 412.433 392.006C394.636 391.383 384.754 393.875 380.804 396.976C376.854 400.077 362.361 417.464 363.668 419.333C364.975 421.202 366.443 421.908 372.904 420.579C375.474 420.039 382.786 412.508 382.786 412.508L396.002 406.971C396.002 406.971 382.17 421.257 384.137 423.112C386.105 424.967 389.409 422.489 392.052 420.634C394.695 418.779 399.952 414.419 399.952 414.419L411.816 409.449C411.816 409.449 399.218 417.464 399.218 421.16C399.218 424.857 402.286 422.683 407.514 420.717C409.992 419.243 412.352 417.601 414.577 415.803L424.488 413.173C430.889 416.32 438.019 417.918 445.237 417.824C452.782 417.794 460.07 415.232 465.794 410.598C465.794 410.598 511.916 416.814 534.969 414.945C558.023 413.076 587.009 415.568 598.873 407.497C610.738 399.426 595.584 378.301 594.263 376.432" fill="#ABABAB"/>
<path d="M569.095 369.165C569.095 369.165 550.755 362.81 537.568 367.78C524.382 372.75 493.429 384.558 472.358 388.282C452.587 391.584 432.492 392.833 412.433 392.006C394.636 391.383 384.754 393.875 380.804 396.976C376.854 400.077 362.361 417.464 363.668 419.333C364.975 421.202 366.443 421.908 372.904 420.579C375.474 420.039 382.786 412.508 382.786 412.508L396.002 406.971C396.002 406.971 382.17 421.257 384.137 423.112C386.105 424.967 389.409 422.489 392.052 420.634C394.695 418.779 399.952 414.419 399.952 414.419L411.816 409.449C411.816 409.449 399.218 417.464 399.218 421.16C399.218 424.857 402.286 422.683 407.514 420.717C409.992 419.243 412.352 417.601 414.577 415.803L424.488 413.173C430.889 416.32 438.019 417.918 445.237 417.824C452.782 417.794 460.07 415.232 465.794 410.598C465.794 410.598 511.916 416.814 534.969 414.945C558.023 413.076 587.009 415.568 598.873 407.497C610.738 399.426 595.584 378.301 594.263 376.432" stroke="#263238" stroke-linecap="round" stroke-linejoin="round"/>
<path d="M366.722 421.052C366.722 421.052 369.174 414.393 371.626 411.5C374.078 408.606 385.429 401.671 389.423 399.65C391.006 398.786 392.644 398.014 394.327 397.338" stroke="#263238" stroke-linecap="round" stroke-linejoin="round"/>
<path d="M395.929 406.918L407.514 399.65" stroke="#263238" stroke-linecap="round" stroke-linejoin="round"/>
<path d="M411.743 409.394L422.55 404.271" stroke="#263238" stroke-linecap="round" stroke-linejoin="round"/>
<path d="M569.095 369.167C559.301 366.966 545.469 364.806 537.569 367.782C525.822 372.198 500.155 381.986 479.788 386.734C482.674 389.727 484.343 393.586 484.502 397.629C484.732 402.695 483.996 407.759 482.328 412.58C497.849 414.227 520.756 416.137 534.941 414.988C557.994 413.119 586.98 415.611 598.845 407.541C610.709 399.47 595.555 378.345 594.234 376.476" fill="#2C2BAB"/>
<path d="M569.095 369.167C559.301 366.966 545.469 364.806 537.569 367.782C525.822 372.198 500.155 381.986 479.788 386.734C482.674 389.727 484.343 393.586 484.502 397.629C484.732 402.695 483.996 407.759 482.328 412.58C497.849 414.227 520.756 416.137 534.941 414.988C557.994 413.119 586.98 415.611 598.845 407.541C610.709 399.47 595.555 378.345 594.234 376.476" stroke="#263238" stroke-linecap="round" stroke-linejoin="round"/>
<path d="M221.249 367.297C222.482 364.154 231.528 356.637 243.701 358.644C255.873 360.652 269.691 373.401 277.591 383.203C285.491 393.004 291.79 395.662 291.79 395.662L282.481 422.476C282.481 422.476 276.754 421.175 266.005 418.6C255.257 416.025 231.205 412.675 220.148 409.436C209.091 406.196 204.377 394.983 206.785 384.518C208.014 378.701 210.115 373.08 213.026 367.823" fill="#2C2BAB"/>
<path d="M221.249 367.297C222.482 364.154 231.528 356.637 243.701 358.644C255.873 360.652 269.691 373.401 277.591 383.203C285.491 393.004 291.79 395.662 291.79 395.662L282.481 422.476C282.481 422.476 276.754 421.175 266.005 418.6C255.257 416.025 231.205 412.675 220.148 409.436C209.091 406.197 204.377 394.983 206.785 384.518C208.014 378.701 210.115 373.08 213.026 367.823" stroke="#263238" stroke-linecap="round" stroke-linejoin="round"/>
<path d="M277.592 383.201C276.755 382.177 275.859 381.125 274.919 380.045C268.033 382.634 259.296 387.41 254.67 395.826C250.045 404.243 250.016 411.193 250.911 415.623C256.785 416.675 262.203 417.671 265.977 418.571C276.726 421.146 282.452 422.447 282.452 422.447L291.762 395.633C291.762 395.633 285.477 393.016 277.592 383.201Z" fill="#ABABAB" stroke="#263238" stroke-linecap="round" stroke-linejoin="round"/>
<path d="M273.789 409.394C273.172 413.547 271.821 418.295 278.194 420.926C284.567 423.556 290.91 430.049 294.919 431.571C299.768 433.323 304.837 434.477 309.999 435.005C314.082 435.254 319.118 436.513 327.121 434.409C335.123 432.305 334.903 430.367 334.903 430.367C334.903 430.367 339.896 430.547 342.363 429.398C344.829 428.249 343.097 425.369 340.101 424.234C337.106 423.099 333.435 421.576 333.435 421.576C333.435 421.576 337.987 417.617 336.841 416.634L335.711 415.651C335.711 415.651 340.968 416.233 341.423 414.655C341.878 413.077 338.574 406.099 337.253 400.23C335.931 394.36 333.156 395.149 328.09 394.208C323.024 393.267 316.123 394.471 307.019 392.644C297.915 390.816 284.729 393.89 279.516 395.191" fill="#ABABAB"/>
<path d="M273.789 409.394C273.172 413.547 271.821 418.295 278.194 420.926C284.567 423.556 290.91 430.049 294.919 431.571C299.768 433.323 304.837 434.477 309.999 435.005C314.082 435.254 319.118 436.513 327.121 434.409C335.123 432.305 334.903 430.367 334.903 430.367C334.903 430.367 339.896 430.547 342.363 429.398C344.829 428.249 343.097 425.369 340.101 424.234C337.106 423.099 333.435 421.576 333.435 421.576C333.435 421.576 337.987 417.617 336.841 416.634L335.711 415.651C335.711 415.651 340.968 416.233 341.423 414.655C341.878 413.077 338.574 406.099 337.253 400.23C335.931 394.36 333.156 395.149 328.09 394.208C323.024 393.267 316.123 394.471 307.019 392.644C297.915 390.816 284.729 393.89 279.516 395.191" stroke="#263238" stroke-linecap="round" stroke-linejoin="round"/>
<path d="M309.338 369.458L317.649 397.144L324.286 400.121L314.448 368.059C314.345 367.719 314.166 367.404 313.924 367.134C313.681 366.863 313.38 366.645 313.041 366.493C312.702 366.341 312.333 366.259 311.958 366.252C311.583 366.246 311.21 366.314 310.865 366.454C310.264 366.691 309.777 367.128 309.495 367.682C309.214 368.235 309.158 368.867 309.338 369.458Z" fill="#263238"/>
<path d="M314.052 395.025C314.052 395.025 328.589 402.335 329.587 402.709C330.277 402.972 336.753 413.174 338.809 418.075C339.763 420.317 338.691 421.605 336.459 422.768L333.449 421.619L315.373 410.89L308.751 407.914" fill="#ABABAB"/>
<path d="M314.052 395.025C314.052 395.025 328.589 402.335 329.587 402.709C330.277 402.972 336.753 413.174 338.809 418.075C339.763 420.317 338.691 421.605 336.459 422.768L333.449 421.619L315.373 410.89L308.751 407.914" stroke="#263238" stroke-linecap="round" stroke-linejoin="round"/>
<path d="M303.905 418.904C303.905 418.904 318.06 426.837 321.041 428.29C324.022 429.744 334.903 430.408 334.903 430.408" stroke="#263238" stroke-linecap="round" stroke-linejoin="round"/>
<path d="M298.604 426.699C298.604 426.699 310.483 432.873 312.817 433.621C315.152 434.368 320.159 435.67 320.159 435.67" stroke="#263238" stroke-linecap="round" stroke-linejoin="round"/>
<path d="M206.625 478.153L260.838 431.141L141.399 423.873L206.625 478.153Z" fill="#CCCCCC" stroke="#263238" stroke-linecap="round" stroke-linejoin="round"/>
<path d="M204.335 468.685L228.739 446.881L200.473 445.275L204.335 468.685Z" fill="#263238" stroke="#263238" stroke-linecap="round" stroke-linejoin="round"/>
<path d="M38.1136 346.129L216.918 353.591L206.625 478.154L26.249 469.944L38.1136 346.129Z" fill="#A6A6A6" stroke="#263238" stroke-linecap="round" stroke-linejoin="round"/>
<path d="M27.042 461.652C37.6143 460.185 55.4552 456.267 85.5864 447.075C157.317 425.189 166.347 364.015 216.919 353.591L38.1136 346.129L27.042 461.652Z" fill="#263238" stroke="#263238" stroke-linecap="round" stroke-linejoin="round"/>
<path d="M120.402 419.221C127.977 419.221 134.117 414.771 134.117 409.281C134.117 403.792 127.977 399.342 120.402 399.342C112.828 399.342 106.688 403.792 106.688 409.281C106.688 414.771 112.828 419.221 120.402 419.221Z" fill="white" stroke="#263238" stroke-linecap="round" stroke-linejoin="round"/>
</g>
<defs>
<clipPath id="clip0_656_238">
<rect width="640.812" height="498.853" fill="white" transform="translate(0.685547)"/>
</clipPath>
</defs>
</svg>
