<svg width="486" height="563" viewBox="0 0 486 563" fill="none" xmlns="http://www.w3.org/2000/svg">
<path d="M14.1001 301.366C-27.9288 188.248 29.7008 62.4757 142.82 20.4468L169.227 10.6353C248.953 -18.9869 337.598 21.6307 367.22 101.357L413.928 227.068C455.957 340.187 398.327 465.959 285.208 507.988L253.177 519.889C176.557 548.357 91.3655 509.322 62.8974 432.702L14.1001 301.366Z" fill="#343090" fill-opacity="0.07"/>
<path d="M126.755 277.494C114.829 162.538 198.351 59.6798 313.308 47.754C394.329 39.3486 466.824 98.2158 475.23 179.237L484.609 269.651C496.731 386.49 411.841 491.031 295.003 503.153C215.863 511.363 145.052 453.863 136.842 374.723L126.755 277.494Z" fill="#343090" fill-opacity="0.15"/>
</svg>
