<svg width="130" height="116" viewBox="0 0 130 116" fill="none" xmlns="http://www.w3.org/2000/svg">
<g clip-path="url(#clip0_563_133)">
<path d="M119.807 69.2348C121.615 69.4559 122.693 69.9498 123.247 70.6871C123.758 71.3665 123.916 72.3793 123.579 73.9183L123.505 74.2333C121.253 82.8818 117.201 90.7889 111.588 97.8312L111.588 97.832C111.535 97.8499 111.446 97.8701 111.303 97.8932C111.162 97.9158 110.995 97.9376 110.788 97.9653C110.676 97.9803 110.556 97.9989 110.426 98.0176C108.778 95.1243 109.351 92.5248 110.557 89.7089C110.87 88.9796 111.222 88.2423 111.587 87.4829C111.951 86.7263 112.328 85.9471 112.682 85.1482C113.39 83.5496 114.019 81.8457 114.297 79.9945L114.431 79.0981L113.601 79.463C111.995 80.1687 110.829 80.773 109.695 81.1253C86.2169 87.418 64.3133 83.5829 43.7127 72.6649L43.7045 72.6612C40.6438 71.1091 37.7968 68.6539 35.3412 66.0228C26.6551 56.5997 20.9284 45.4917 18.8496 32.6576L18.6597 31.4096C18.0768 27.1359 18.736 22.5684 19.2612 18.0963L19.2628 18.0877L19.2629 18.0779L19.298 17.7837C19.4064 17.0963 19.6961 16.3993 20.0672 15.6755C20.2785 15.2634 20.5087 14.856 20.7407 14.4401C20.9132 14.1308 21.086 13.8172 21.2459 13.5034C21.6943 13.5428 22.1427 13.5827 22.5911 13.6221C22.6657 14.4057 22.787 15.1803 22.8918 15.9249C23.0172 16.8152 23.1169 17.6798 23.0952 18.5556C22.3746 34.8785 28.9225 48.1661 38.3885 59.8742L38.389 59.8734C41.6876 63.9565 46.3924 67.3515 51.2134 69.5758C64.7831 76.0699 79.3452 79.0761 94.6632 78.0998C99.1187 77.8247 103.634 76.6537 108.056 74.7968L109.355 74.2512L108.003 73.856C106.842 73.5164 105.569 73.1097 104.299 72.8126L103.754 72.6923C99.9023 71.8357 96.0248 71.0748 92.2467 70.0157L91.4939 69.8002C89.8979 69.3231 88.351 68.1654 86.9091 66.9193L86.8964 66.9085L86.8832 66.8985C86.8377 66.864 86.7637 66.7743 86.6898 66.6004C86.6191 66.4337 86.5634 66.2245 86.5323 65.9977C86.4665 65.5187 86.5232 65.0906 86.6291 64.8918C86.7318 64.699 87.0528 64.4253 87.4773 64.2268C87.6775 64.1332 87.8712 64.0708 88.0306 64.0441C88.1096 64.0308 88.1722 64.0286 88.2177 64.0313C88.2542 64.0335 88.2719 64.0386 88.2761 64.04L88.2999 64.0506L88.3248 64.0597C98.4277 67.6132 109.316 67.9748 119.807 69.2334L119.807 69.2348Z" stroke="white"/>
</g>
<defs>
<clipPath id="clip0_563_133">
<rect width="124" height="51" fill="white" transform="translate(30.7627) rotate(37.0993)"/>
</clipPath>
</defs>
</svg>
