<svg width="82" height="82" viewBox="0 0 82 82" fill="none" xmlns="http://www.w3.org/2000/svg">
<rect width="82" height="82" rx="41" fill="#343090"/>
<rect x="6" y="6" width="70" height="70" rx="35" fill="#343090"/>
<path d="M58.1875 42.5633C57.7731 42.5633 57.3757 42.7279 57.0826 43.0209C56.7896 43.3139 56.625 43.7114 56.625 44.1258C56.625 45.1517 56.4229 46.1676 56.0303 47.1155C55.6377 48.0633 55.0622 48.9246 54.3368 49.65C53.6113 50.3755 52.7501 50.951 51.8022 51.3436C50.8544 51.7362 49.8385 51.9383 48.8125 51.9383C46.5045 51.9369 44.2779 52.7907 42.5625 54.3347V41.0008H48.8125C49.2269 41.0008 49.6243 40.8361 49.9174 40.5431C50.2104 40.2501 50.375 39.8527 50.375 39.4383C50.375 39.0239 50.2104 38.6264 49.9174 38.3334C49.6243 38.0404 49.2269 37.8758 48.8125 37.8758H42.5625V32.9929C44.0354 32.6126 45.319 31.7082 46.1728 30.4492C47.0266 29.1902 47.3919 27.663 47.2002 26.1539C47.0085 24.6448 46.273 23.2574 45.1316 22.2518C43.9902 21.2462 42.5212 20.6914 41 20.6914C39.4788 20.6914 38.0098 21.2462 36.8684 22.2518C35.727 23.2574 34.9915 24.6448 34.7998 26.1539C34.6081 27.663 34.9734 29.1902 35.8272 30.4492C36.681 31.7082 37.9646 32.6126 39.4375 32.9929V37.8758H33.1875C32.7731 37.8758 32.3757 38.0404 32.0826 38.3334C31.7896 38.6264 31.625 39.0239 31.625 39.4383C31.625 39.8527 31.7896 40.2501 32.0826 40.5431C32.3757 40.8361 32.7731 41.0008 33.1875 41.0008H39.4375V54.3347C37.7221 52.7907 35.4955 51.9369 33.1875 51.9383C31.1155 51.9383 29.1284 51.1152 27.6632 49.65C26.1981 48.1849 25.375 46.1978 25.375 44.1258C25.375 43.7114 25.2104 43.3139 24.9174 43.0209C24.6243 42.7279 24.2269 42.5633 23.8125 42.5633C23.3981 42.5633 23.0007 42.7279 22.7076 43.0209C22.4146 43.3139 22.25 43.7114 22.25 44.1258C22.2531 47.0256 23.4064 49.8058 25.4569 51.8563C27.5075 53.9068 30.2876 55.0602 33.1875 55.0633C34.8451 55.0633 36.4348 55.7217 37.6069 56.8938C38.779 58.0659 39.4375 59.6557 39.4375 61.3133C39.4375 61.7277 39.6021 62.1251 39.8951 62.4181C40.1882 62.7111 40.5856 62.8758 41 62.8758C41.4144 62.8758 41.8118 62.7111 42.1049 62.4181C42.3979 62.1251 42.5625 61.7277 42.5625 61.3133C42.5625 59.6557 43.221 58.0659 44.3931 56.8938C45.5652 55.7217 47.1549 55.0633 48.8125 55.0633C51.7124 55.0602 54.4925 53.9068 56.5431 51.8563C58.5936 49.8058 59.7469 47.0256 59.75 44.1258C59.75 43.7114 59.5854 43.3139 59.2924 43.0209C58.9993 42.7279 58.6019 42.5633 58.1875 42.5633ZM37.875 26.9383C37.875 26.3202 38.0583 25.716 38.4017 25.2021C38.745 24.6882 39.2331 24.2877 39.8041 24.0511C40.3751 23.8146 41.0035 23.7527 41.6097 23.8733C42.2158 23.9939 42.7727 24.2915 43.2097 24.7285C43.6467 25.1656 43.9444 25.7224 44.065 26.3286C44.1855 26.9348 44.1236 27.5631 43.8871 28.1341C43.6506 28.7052 43.2501 29.1932 42.7362 29.5366C42.2223 29.88 41.6181 30.0633 41 30.0633C40.1712 30.0633 39.3763 29.734 38.7903 29.148C38.2042 28.5619 37.875 27.7671 37.875 26.9383Z" fill="#FDFDFD"/>
</svg>
