<svg width="52" height="52" viewBox="0 0 52 52" fill="none" xmlns="http://www.w3.org/2000/svg">
<g clip-path="url(#clip0_686_90)">
<mask id="mask0_686_90" style="mask-type:luminance" maskUnits="userSpaceOnUse" x="0" y="0" width="52" height="52">
<path d="M52 0H0V52H52V0Z" fill="white"/>
</mask>
<g mask="url(#mask0_686_90)">
<path d="M25.9997 4.33398C14.0613 4.33398 4.33301 14.0623 4.33301 26.0006C4.33301 37.939 14.0613 47.6673 25.9997 47.6673C37.938 47.6673 47.6663 37.939 47.6663 26.0006C47.6663 14.0623 37.938 4.33398 25.9997 4.33398ZM36.3563 21.0173L24.0713 33.3023C23.768 33.6056 23.3563 33.779 22.923 33.779C22.4897 33.779 22.078 33.6056 21.7747 33.3023L15.643 27.1706C15.0147 26.5423 15.0147 25.5023 15.643 24.874C16.2713 24.2456 17.3113 24.2456 17.9397 24.874L22.923 29.8573L34.0597 18.7206C34.688 18.0923 35.728 18.0923 36.3563 18.7206C36.9847 19.349 36.9847 20.3673 36.3563 21.0173Z" fill="#2C2BAB" fill-opacity="0.9"/>
</g>
</g>
<defs>
<clipPath id="clip0_686_90">
<rect width="52" height="52" fill="white"/>
</clipPath>
</defs>
</svg>
